<svg id="Grupo_1102980" data-name="Grupo 1102980" xmlns="http://www.w3.org/2000/svg" xmlns:xlink="http://www.w3.org/1999/xlink" width="54.178" height="105.423" viewBox="0 0 54.178 105.423">
  <defs>
    <clipPath id="clip-path">
      <rect id="Rectángulo_403063" data-name="Rectángulo 403063" width="54.178" height="105.423" fill="#12263f"/>
    </clipPath>
  </defs>
  <g id="Grupo_1102979" data-name="Grupo 1102979" clip-path="url(#clip-path)">
    <path id="Trazado_883417" data-name="Trazado 883417" d="M49.632,105.423H5.07a1.544,1.544,0,1,1,0-3.089h8.568c-4.415-23.959-3-37.753-2.669-40.3L10.142,59.8a5.161,5.161,0,0,1,1.133-5.35L7.332,40.136a1.544,1.544,0,0,1,.323-1.423l2.22-2.557L5.39,21.668a4.637,4.637,0,0,1-3.065-4.862l.146-1.373A1.545,1.545,0,0,1,1.127,14.17L.024,7.993a1.544,1.544,0,0,1,1.52-1.816h1.3a6.286,6.286,0,0,1-.2-1.544A4.638,4.638,0,0,1,7.276,0h6.177A1.544,1.544,0,0,1,14.93,2a14.389,14.389,0,0,1-2.173,4.18h.251a1.544,1.544,0,0,1,1.52,1.817l-1.107,6.177a1.544,1.544,0,0,1-1,1.182l3.057,8.311h3.57a7.134,7.134,0,0,1,1.012-2.331L16.7,17.974a1.544,1.544,0,0,1,2.184-2.184l3.348,3.348a9.3,9.3,0,0,1,3.834-1.515V13.379a1.544,1.544,0,0,1,3.089,0v4.245a9.3,9.3,0,0,1,3.834,1.515l3.348-3.348a1.544,1.544,0,0,1,2.184,2.184l-3.359,3.359a7.132,7.132,0,0,1,1.012,2.331h3.548a1.544,1.544,0,1,1,0,3.089H36.085a11.519,11.519,0,0,1-.89,2.057,17.563,17.563,0,0,1-.2,2.277c3.378,5.008,2.468,8.433.606,10.642a11.326,11.326,0,0,1,2.919,5.461l.845,3.544,3.794-5.077a1.544,1.544,0,0,1,2.163-.311l8.236,6.177a1.544,1.544,0,0,1,.311,2.16l-10.462,14L45.9,78.123a1.544,1.544,0,0,1-.939,1.8l-4.775,1.87c-.293,2.754-1.3,11.632-2.923,20.545H49.631a1.544,1.544,0,0,1,0,3.088Zm-32.853-3.089H34.123c1.426-7.684,2.384-15.445,2.817-19.274l-3.888,1.523v4.3a1.544,1.544,0,0,1-.981,1.438l-4.99,1.954A1.544,1.544,0,0,1,25.954,89.4l4.009-1.57v-4.3a1.544,1.544,0,0,1,.981-1.438l11.641-4.559L39.3,63.772a1.544,1.544,0,0,1,3-.717l.17.715,8-10.7-5.765-4.324-4.409,5.9.565,2.37a1.544,1.544,0,0,1-3,.717l-2.344-9.825a10.374,10.374,0,0,0-.293-1.005L33.051,48.52V76.881a1.544,1.544,0,0,1-3.089,0V50.82l-3.241,2.415L20.389,83.454a1.544,1.544,0,0,1-3.023-.633l5.615-26.8-1.761,1.312a1.544,1.544,0,0,1-1.845-2.477L33.685,44.2a6.409,6.409,0,0,0-1.249-1.091l-.459-.306L17.421,53.643l-.014.011L13.733,56.39a2.049,2.049,0,0,0-.694,2.341l.245.663,1.244-.927a1.544,1.544,0,1,1,1.845,2.477L14,62.712c-.293,2.568-1.2,13.215,1.328,30.847l5.19-2.033A1.544,1.544,0,1,1,21.644,94.4L15.8,96.69Q16.235,99.412,16.779,102.334Zm-6.25-62.22L13.915,52.4l1.2-.892,2.866-12.6a1.544,1.544,0,1,1,3.012.685l-2.064,9.076,10.329-7.694-1.7-1.145c-4.134-.046-7.384-4.839-7.525-11.023a11.505,11.505,0,0,1-.89-2.057H16.614L17.94,30.36a1.544,1.544,0,0,1-.283,1.546Zm20.639-1.571c.63.423,1.323.887,1.971,1.32.906-1,1.474-2.41.6-4.646A9.4,9.4,0,0,1,31.168,38.542Zm-8-8.955c.324,3.593,2.06,7.157,4.446,7.157s4.123-3.564,4.446-7.157a10.729,10.729,0,0,1-4.446-2.637,10.725,10.725,0,0,1-4.446,2.638M5.576,15.443l-.18,1.69a1.546,1.546,0,0,0,1.372,1.7A1.544,1.544,0,0,1,8.08,19.911l4.179,13.5,2.469-2.843L9.163,15.443Zm22.035,5.149c-3.116,0-5.651,2.071-5.651,4.616a4.215,4.215,0,0,0,.416,1.388,6.85,6.85,0,0,0,3.887-2.953,1.544,1.544,0,0,1,2.7,0,6.86,6.86,0,0,0,3.886,2.952,4.238,4.238,0,0,0,.417-1.387C33.262,22.663,30.727,20.592,27.611,20.592ZM3.94,12.354h6.668l.554-3.089H3.389ZM6.108,6.177h2.6a15.746,15.746,0,0,0,2.379-3.089H7.276A1.546,1.546,0,0,0,5.732,4.633,3.767,3.767,0,0,0,6.108,6.177Z" transform="translate(0)" fill="#12263f"/>
  </g>
</svg>
