<svg xmlns="http://www.w3.org/2000/svg" xmlns:xlink="http://www.w3.org/1999/xlink" width="85" height="85" viewBox="0 0 85 85">
  <defs>
    <clipPath id="clip-path">
      <rect id="Rectángulo_403064" data-name="Rectángulo 403064" width="85" height="85" transform="translate(0 0)" fill="#12263f"/>
    </clipPath>
  </defs>
  <g id="Grupo_1102982" data-name="Grupo 1102982" transform="translate(0 -0.387)">
    <g id="Grupo_1102981" data-name="Grupo 1102981" transform="translate(0 0.387)" clip-path="url(#clip-path)">
      <path id="Trazado_883418" data-name="Trazado 883418" d="M42.688,0A42.688,42.688,0,1,0,85.376,42.688,42.737,42.737,0,0,0,42.688,0m-2.5,80.289a37.529,37.529,0,0,1-22.306-9.256L40.187,48.727Zm0-38.637L14.344,67.5A37.662,37.662,0,0,1,40.187,5.088Zm5,38.637V48.727L67.5,71.032A37.529,37.529,0,0,1,45.189,80.289ZM71.032,67.5,45.189,41.652V5.088A37.662,37.662,0,0,1,71.032,67.5Z" transform="translate(0 -0.427)" fill="#12263f"/>
    </g>
  </g>
</svg>
