<svg xmlns="http://www.w3.org/2000/svg" width="505" height="368.528" viewBox="0 0 505 368.528">
  <g id="Grupo_1102472" data-name="Grupo 1102472" transform="translate(-180 -1151.229)">
    <path id="Trazado_882731" data-name="Trazado 882731" d="M444.134,157.365,315.549,200.227l128.015,46.72a136.577,136.577,0,0,0,.57-89.582" transform="translate(133.167 1127.873)" fill="#00a48e"/>
    <path id="Trazado_882732" data-name="Trazado 882732" d="M334.335,342.137a135.8,135.8,0,0,0,82.327-44.961l-100.524-89.6Z" transform="translate(133.08 1120.42)" fill="#7f24ff"/>
    <path id="Trazado_882733" data-name="Trazado 882733" d="M195.865,301.023a135.863,135.863,0,0,0,74.049,42.3c7.588-36.407,28.575-135.506,28.575-135.506Z" transform="translate(150.93 1120.385)" fill="#d41d5d"/>
    <path id="Trazado_882734" data-name="Trazado 882734" d="M163.4,158.363a136.647,136.647,0,0,0,1.213,90.317l127.9-48Z" transform="translate(156.8 1127.725)" fill="#ff5101"/>
    <path id="Trazado_882735" data-name="Trazado 882735" d="M192.394,99l105.379,85.784L274.361,51.307A135.9,135.9,0,0,0,192.394,99" transform="translate(151.445 1143.613)" fill="#fecb00"/>
    <path id="Trazado_882736" data-name="Trazado 882736" d="M426.551,105.55A135.88,135.88,0,0,0,324.905,48.828l-8.931,134.6Z" transform="translate(133.104 1143.981)" fill="#dbfd01"/>
    <path id="Trazado_882737" data-name="Trazado 882737" d="M316.021,190.033,454.233,154.3a144.246,144.246,0,0,0-35.744-64.27Z" transform="translate(133.097 1137.865)" fill="lime"/>
    <path id="Trazado_882738" data-name="Trazado 882738" d="M315.785,207.107l107.074,113a155.818,155.818,0,0,0,43.258-72.845Z" transform="translate(133.132 1120.49)" fill="#03f"/>
    <path id="Trazado_882739" data-name="Trazado 882739" d="M308.032,350.354a144.758,144.758,0,0,0,35.232-4.335L309.489,208.051s-26.664,91.361-39.512,137.227a144.613,144.613,0,0,0,38.055,5.075" transform="translate(139.931 1120.35)" fill="#981eaa"/>
    <path id="Trazado_882740" data-name="Trazado 882740" d="M140.363,252.256a155.84,155.84,0,0,0,39.679,66.336c25.378-25.828,110.209-110.66,110.209-110.66Z" transform="translate(159.167 1120.367)" fill="#ff1f01"/>
    <path id="Trazado_882741" data-name="Trazado 882741" d="M291.619,189.953l-99.931-104.7a144.322,144.322,0,0,0-41.114,71.627Z" transform="translate(157.652 1138.576)" fill="#ffa200"/>
    <path id="Trazado_882742" data-name="Trazado 882742" d="M309.563,181.025,352.7,31.256A156.781,156.781,0,0,0,271.473,29.7Z" transform="translate(139.708 1147.504)" fill="#fcf102"/>
    <path id="Trazado_882743" data-name="Trazado 882743" d="M70.223,8.537H66.362l-.838,2.545H63.645l3.8-10.9h1.729l3.757,10.9H71.055Zm-3.36-1.519H69.73l-1.4-4.3h-.045Z" transform="translate(170.554 1151.201)"/>
    <path id="Trazado_882744" data-name="Trazado 882744" d="M81.65,8.567H81.7L84.846.185h2.321v10.9H85.348V3.254L85.3,3.246l-3,7.836h-1.25L78,3.1l-.045.015v7.971H76.134V.185h2.388Z" transform="translate(168.7 1151.201)"/>
    <path id="Trazado_882745" data-name="Trazado 882745" d="M97.461,8.537H93.6l-.838,2.545H90.883l3.8-10.9h1.729l3.757,10.9H98.293ZM94.1,7.018h2.866l-1.4-4.3h-.045Z" transform="translate(166.511 1151.201)"/>
    <path id="Trazado_882746" data-name="Trazado 882746" d="M105.19,6.562v4.52h-1.819V.185h3.75a4.3,4.3,0,0,1,2.814.823,2.877,2.877,0,0,1,1,2.35,2.437,2.437,0,0,1-.438,1.456,3.015,3.015,0,0,1-1.276.977,2.3,2.3,0,0,1,1.328.95,3.046,3.046,0,0,1,.409,1.632v.905a3.663,3.663,0,0,0,.119.936,1.339,1.339,0,0,0,.4.7v.172H109.6a1.192,1.192,0,0,1-.382-.771,6.679,6.679,0,0,1-.083-1.047V8.387a1.824,1.824,0,0,0-.484-1.332,1.748,1.748,0,0,0-1.313-.494Zm0-1.46h1.833a2.467,2.467,0,0,0,1.594-.419,1.572,1.572,0,0,0,.5-1.28,1.691,1.691,0,0,0-.494-1.291,2.119,2.119,0,0,0-1.5-.468H105.19Z" transform="translate(164.658 1151.201)"/>
    <path id="Trazado_882952" data-name="Trazado 882952" d="M0,0H1.819V10.9H0Z" transform="translate(277.931 1151.386)"/>
    <path id="Trazado_882747" data-name="Trazado 882747" d="M121.819,9.63h5.1v1.452H120V.185h1.819Z" transform="translate(162.19 1151.201)"/>
    <path id="Trazado_882748" data-name="Trazado 882748" d="M131.76,9.63h5.1v1.452h-6.923V.185h1.819Z" transform="translate(160.714 1151.201)"/>
    <path id="Trazado_882749" data-name="Trazado 882749" d="M148.162,6.586A4.6,4.6,0,0,1,146.908,9.9a4.3,4.3,0,0,1-3.259,1.314A4.154,4.154,0,0,1,140.468,9.9a4.659,4.659,0,0,1-1.228-3.312V4.626a4.672,4.672,0,0,1,1.224-3.308A4.148,4.148,0,0,1,143.649,0,4.3,4.3,0,0,1,146.9,1.317a4.6,4.6,0,0,1,1.258,3.308ZM146.343,4.61a3.388,3.388,0,0,0-.726-2.238,2.422,2.422,0,0,0-1.968-.875,2.29,2.29,0,0,0-1.9.875,3.5,3.5,0,0,0-.691,2.238V6.586a3.525,3.525,0,0,0,.7,2.257,2.285,2.285,0,0,0,1.894.88,2.42,2.42,0,0,0,1.971-.875,3.436,3.436,0,0,0,.723-2.261Z" transform="translate(159.334 1151.229)"/>
    <path id="Trazado_882750" data-name="Trazado 882750" d="M70.223,30.137H66.362l-.838,2.545H63.645l3.8-10.9h1.729l3.757,10.9H71.055Zm-3.36-1.519H69.73l-1.4-4.3h-.045Z" transform="translate(170.554 1147.995)"/>
    <path id="Trazado_882751" data-name="Trazado 882751" d="M84.644,32.682H82.825L78,24.831l-.044.015v7.836H76.134v-10.9h1.819l4.828,7.852.044-.015V21.785h1.819Z" transform="translate(168.7 1147.995)"/>
    <path id="Trazado_882752" data-name="Trazado 882752" d="M94.49,30.137H90.629l-.838,2.545H87.912l3.8-10.9h1.729l3.757,10.9H95.322Zm-3.36-1.519H94l-1.4-4.3h-.045Z" transform="translate(166.952 1147.995)"/>
    <path id="Trazado_882753" data-name="Trazado 882753" d="M102.22,28.162v4.52H100.4v-10.9h3.75a4.3,4.3,0,0,1,2.814.823,2.877,2.877,0,0,1,1,2.35,2.437,2.437,0,0,1-.438,1.456,3.015,3.015,0,0,1-1.276.977,2.3,2.3,0,0,1,1.328.95,3.046,3.046,0,0,1,.409,1.632v.905a3.662,3.662,0,0,0,.119.936,1.339,1.339,0,0,0,.4.7v.172h-1.871a1.192,1.192,0,0,1-.382-.771,6.678,6.678,0,0,1-.083-1.047v-.876a1.824,1.824,0,0,0-.484-1.332,1.748,1.748,0,0,0-1.313-.494Zm0-1.46h1.833a2.467,2.467,0,0,0,1.594-.419,1.572,1.572,0,0,0,.5-1.28,1.691,1.691,0,0,0-.494-1.291,2.119,2.119,0,0,0-1.5-.468H102.22Z" transform="translate(165.099 1147.995)"/>
    <path id="Trazado_882754" data-name="Trazado 882754" d="M117.368,30.137h-3.862l-.838,2.545H110.79l3.8-10.9h1.729l3.757,10.9H118.2Zm-3.36-1.519h2.866l-1.4-4.3h-.045Z" transform="translate(163.557 1147.995)"/>
    <path id="Trazado_882755" data-name="Trazado 882755" d="M131.789,32.682H129.97l-4.828-7.852-.044.015v7.836h-1.819v-10.9H125.1l4.828,7.852.044-.015V21.785h1.819Z" transform="translate(161.703 1147.995)"/>
    <path id="Trazado_882756" data-name="Trazado 882756" d="M140.209,21.785h1.811v7.627a3.328,3.328,0,0,1-.955,2.5,3.4,3.4,0,0,1-2.473.927,3.751,3.751,0,0,1-2.553-.823,2.922,2.922,0,0,1-.905-2.4l.015-.044h1.759a1.871,1.871,0,0,0,.445,1.373,1.675,1.675,0,0,0,1.24.445,1.453,1.453,0,0,0,1.163-.538,2.165,2.165,0,0,0,.453-1.437Z" transform="translate(159.944 1147.995)"/>
    <path id="Trazado_882757" data-name="Trazado 882757" d="M151.214,30.137h-3.862l-.838,2.545h-1.879l3.8-10.9h1.729l3.757,10.9h-1.879Zm-3.36-1.519h2.866l-1.4-4.3h-.045Z" transform="translate(158.533 1147.995)"/>
    <path id="Trazado_882758" data-name="Trazado 882758" d="M157.125,32.683v-10.9h3.6a4.568,4.568,0,0,1,3.371,1.3,4.5,4.5,0,0,1,1.3,3.331v1.654a4.487,4.487,0,0,1-1.3,3.331,4.582,4.582,0,0,1-3.371,1.288Zm1.819-9.438v7.986h1.782a2.614,2.614,0,0,0,2.08-.887,3.345,3.345,0,0,0,.771-2.279V26.4a3.323,3.323,0,0,0-.771-2.264,2.614,2.614,0,0,0-2.08-.887Z" transform="translate(156.68 1147.995)"/>
    <path id="Trazado_882759" data-name="Trazado 882759" d="M177.684,28.186A4.6,4.6,0,0,1,176.43,31.5a4.3,4.3,0,0,1-3.259,1.314A4.154,4.154,0,0,1,169.99,31.5a4.659,4.659,0,0,1-1.228-3.312v-1.96a4.672,4.672,0,0,1,1.224-3.308,4.148,4.148,0,0,1,3.185-1.317,4.3,4.3,0,0,1,3.256,1.317,4.6,4.6,0,0,1,1.258,3.308Zm-1.819-1.976a3.388,3.388,0,0,0-.726-2.238,2.422,2.422,0,0,0-1.968-.875,2.29,2.29,0,0,0-1.9.875,3.5,3.5,0,0,0-.691,2.238v1.976a3.525,3.525,0,0,0,.7,2.257,2.285,2.285,0,0,0,1.894.88,2.42,2.42,0,0,0,1.971-.875,3.436,3.436,0,0,0,.723-2.261Z" transform="translate(154.953 1148.022)"/>
    <path id="Trazado_882760" data-name="Trazado 882760" d="M425.355,14.872h-3.862l-.838,2.545h-1.879l3.8-10.9h1.729l3.757,10.9h-1.879ZM422,13.353h2.866l-1.4-4.3h-.045Z" transform="translate(117.846 1150.261)"/>
    <path id="Trazado_882761" data-name="Trazado 882761" d="M436.782,14.9h.045l3.151-8.383H442.3v10.9H440.48V9.589l-.045-.008-3,7.836h-1.25L433.13,9.431l-.045.015v7.971h-1.819V6.519h2.388Z" transform="translate(115.992 1150.261)"/>
    <path id="Trazado_882762" data-name="Trazado 882762" d="M452.592,14.872h-3.862l-.838,2.545h-1.879l3.8-10.9h1.729l3.757,10.9h-1.879Zm-3.36-1.519H452.1l-1.4-4.3h-.045Z" transform="translate(113.804 1150.261)"/>
    <path id="Trazado_882763" data-name="Trazado 882763" d="M460.322,12.9v4.52H458.5V6.52h3.75a4.3,4.3,0,0,1,2.814.823,2.877,2.877,0,0,1,1,2.35,2.431,2.431,0,0,1-.438,1.456,3.015,3.015,0,0,1-1.276.977,2.3,2.3,0,0,1,1.328.95,3.045,3.045,0,0,1,.408,1.632v.905a3.663,3.663,0,0,0,.119.936,1.339,1.339,0,0,0,.4.7v.172h-1.871a1.191,1.191,0,0,1-.382-.771,6.678,6.678,0,0,1-.083-1.047v-.876a1.824,1.824,0,0,0-.483-1.332,1.752,1.752,0,0,0-1.314-.494Zm0-1.46h1.833a2.467,2.467,0,0,0,1.594-.419,1.572,1.572,0,0,0,.5-1.28,1.691,1.691,0,0,0-.494-1.291,2.119,2.119,0,0,0-1.5-.468h-1.931Z" transform="translate(111.95 1150.261)"/>
    <path id="Trazado_882953" data-name="Trazado 882953" d="M0,0H1.819V10.9H0Z" transform="translate(580.355 1156.781)"/>
    <path id="Trazado_882764" data-name="Trazado 882764" d="M476.951,15.965h5.1v1.452h-6.923V6.52h1.819Z" transform="translate(109.482 1150.261)"/>
    <path id="Trazado_882765" data-name="Trazado 882765" d="M486.891,15.965H492v1.452h-6.923V6.52h1.819Z" transform="translate(108.006 1150.261)"/>
    <path id="Trazado_882766" data-name="Trazado 882766" d="M503.293,12.921a4.605,4.605,0,0,1-1.254,3.312,4.3,4.3,0,0,1-3.26,1.314,4.154,4.154,0,0,1-3.181-1.314,4.659,4.659,0,0,1-1.228-3.312v-1.96a4.672,4.672,0,0,1,1.224-3.308,4.148,4.148,0,0,1,3.185-1.317,4.3,4.3,0,0,1,3.256,1.317,4.6,4.6,0,0,1,1.258,3.308Zm-1.819-1.976a3.388,3.388,0,0,0-.726-2.238,2.422,2.422,0,0,0-1.968-.875,2.288,2.288,0,0,0-1.9.875,3.5,3.5,0,0,0-.692,2.238v1.976a3.524,3.524,0,0,0,.7,2.257,2.285,2.285,0,0,0,1.894.88,2.422,2.422,0,0,0,1.972-.875,3.44,3.44,0,0,0,.722-2.261Z" transform="translate(106.626 1150.288)"/>
    <path id="Trazado_882767" data-name="Trazado 882767" d="M429.825,36.061l.2.794h.044l.187-.778,2.605-7.956H434.8l-3.892,10.9h-1.73l-3.884-10.9h1.938Z" transform="translate(116.879 1147.055)"/>
    <path id="Trazado_882768" data-name="Trazado 882768" d="M444.013,34.115h-4.266v3.451h5.029v1.452h-6.848V28.12h6.8v1.46h-4.978v3.076h4.266Z" transform="translate(115.003 1147.055)"/>
    <path id="Trazado_882769" data-name="Trazado 882769" d="M449.714,34.5v4.52h-1.819V28.12h3.75a4.3,4.3,0,0,1,2.814.823,2.877,2.877,0,0,1,1,2.35,2.431,2.431,0,0,1-.438,1.456,3.015,3.015,0,0,1-1.276.977,2.3,2.3,0,0,1,1.328.95,3.045,3.045,0,0,1,.408,1.632v.905a3.663,3.663,0,0,0,.119.936,1.339,1.339,0,0,0,.4.7v.172h-1.871a1.191,1.191,0,0,1-.382-.771,6.678,6.678,0,0,1-.083-1.047v-.876a1.824,1.824,0,0,0-.483-1.332,1.752,1.752,0,0,0-1.314-.494Zm0-1.46h1.833a2.467,2.467,0,0,0,1.594-.419,1.572,1.572,0,0,0,.5-1.28,1.691,1.691,0,0,0-.494-1.291,2.119,2.119,0,0,0-1.5-.468h-1.931Z" transform="translate(113.524 1147.055)"/>
    <path id="Trazado_882770" data-name="Trazado 882770" d="M459.347,39.018V28.12h3.6a4.566,4.566,0,0,1,3.371,1.3,4.5,4.5,0,0,1,1.3,3.331V34.4a4.484,4.484,0,0,1-1.3,3.331,4.581,4.581,0,0,1-3.371,1.288Zm1.819-9.438v7.986h1.781a2.614,2.614,0,0,0,2.08-.887A3.345,3.345,0,0,0,465.8,34.4V32.73a3.322,3.322,0,0,0-.771-2.264,2.614,2.614,0,0,0-2.08-.887Z" transform="translate(111.825 1147.055)"/>
    <path id="Trazado_882771" data-name="Trazado 882771" d="M479.906,34.521a4.605,4.605,0,0,1-1.254,3.312,4.3,4.3,0,0,1-3.26,1.314,4.154,4.154,0,0,1-3.181-1.314,4.659,4.659,0,0,1-1.228-3.312v-1.96a4.672,4.672,0,0,1,1.224-3.308,4.148,4.148,0,0,1,3.185-1.317,4.3,4.3,0,0,1,3.256,1.317,4.6,4.6,0,0,1,1.258,3.308Zm-1.819-1.976a3.388,3.388,0,0,0-.726-2.238,2.422,2.422,0,0,0-1.968-.875,2.288,2.288,0,0,0-1.9.875,3.5,3.5,0,0,0-.692,2.238v1.976a3.525,3.525,0,0,0,.7,2.257,2.285,2.285,0,0,0,1.894.88,2.423,2.423,0,0,0,1.972-.875,3.44,3.44,0,0,0,.722-2.261Z" transform="translate(110.098 1147.082)"/>
    <path id="Trazado_882772" data-name="Trazado 882772" d="M489.4,36.191a1.433,1.433,0,0,0-.483-1.116,4.46,4.46,0,0,0-1.71-.778,7.284,7.284,0,0,1-2.713-1.276,2.549,2.549,0,0,1-.955-2.063,2.677,2.677,0,0,1,1.048-2.17,4.129,4.129,0,0,1,2.694-.853,4.083,4.083,0,0,1,2.826.946,2.9,2.9,0,0,1,1.021,2.339l-.014.045h-1.752a1.743,1.743,0,0,0-.572-1.37,2.212,2.212,0,0,0-1.523-.508,2.089,2.089,0,0,0-1.418.434,1.419,1.419,0,0,0-.5,1.122,1.243,1.243,0,0,0,.547,1.036,5.926,5.926,0,0,0,1.811.775,6.329,6.329,0,0,1,2.612,1.306,2.746,2.746,0,0,1,.9,2.114,2.579,2.579,0,0,1-1.063,2.163,4.491,4.491,0,0,1-2.792.809,4.852,4.852,0,0,1-2.9-.883,2.8,2.8,0,0,1-1.2-2.493l.014-.045h1.752a1.718,1.718,0,0,0,.677,1.478,2.71,2.71,0,0,0,1.65.5,2.427,2.427,0,0,0,1.5-.408,1.314,1.314,0,0,0,.535-1.1" transform="translate(108.274 1147.082)"/>
    <path id="Trazado_882773" data-name="Trazado 882773" d="M503.293,34.521a4.605,4.605,0,0,1-1.254,3.312,4.3,4.3,0,0,1-3.26,1.314,4.154,4.154,0,0,1-3.181-1.314,4.659,4.659,0,0,1-1.228-3.312v-1.96a4.672,4.672,0,0,1,1.224-3.308,4.148,4.148,0,0,1,3.185-1.317,4.3,4.3,0,0,1,3.256,1.317,4.6,4.6,0,0,1,1.258,3.308Zm-1.819-1.976a3.388,3.388,0,0,0-.726-2.238,2.422,2.422,0,0,0-1.968-.875,2.288,2.288,0,0,0-1.9.875,3.5,3.5,0,0,0-.692,2.238v1.976a3.524,3.524,0,0,0,.7,2.257,2.285,2.285,0,0,0,1.894.88,2.422,2.422,0,0,0,1.972-.875,3.44,3.44,0,0,0,.722-2.261Z" transform="translate(106.626 1147.082)"/>
    <path id="Trazado_882774" data-name="Trazado 882774" d="M543.392,198.617l.195.794h.044l.187-.778,2.605-7.956h1.938l-3.892,10.9h-1.73l-3.884-10.9h1.938Z" transform="translate(100.024 1122.929)"/>
    <path id="Trazado_882775" data-name="Trazado 882775" d="M557.579,196.671h-4.266v3.451h5.029v1.452h-6.848v-10.9h6.8v1.46h-4.977v3.076h4.266Z" transform="translate(98.148 1122.929)"/>
    <path id="Trazado_882776" data-name="Trazado 882776" d="M563.28,197.053v4.52h-1.819v-10.9h3.75a4.3,4.3,0,0,1,2.814.823,2.877,2.877,0,0,1,1,2.35,2.427,2.427,0,0,1-.438,1.455,3.01,3.01,0,0,1-1.276.978,2.3,2.3,0,0,1,1.328.95,3.045,3.045,0,0,1,.408,1.632v.905a3.661,3.661,0,0,0,.119.936,1.338,1.338,0,0,0,.4.7v.172h-1.871a1.192,1.192,0,0,1-.382-.771,6.678,6.678,0,0,1-.083-1.047v-.876a1.824,1.824,0,0,0-.483-1.332,1.752,1.752,0,0,0-1.314-.494Zm0-1.46h1.833a2.467,2.467,0,0,0,1.594-.419,1.572,1.572,0,0,0,.5-1.28,1.693,1.693,0,0,0-.494-1.292,2.119,2.119,0,0,0-1.5-.468H563.28Z" transform="translate(96.669 1122.929)"/>
    <path id="Trazado_882777" data-name="Trazado 882777" d="M572.913,201.574v-10.9h3.6a4.566,4.566,0,0,1,3.371,1.3,4.5,4.5,0,0,1,1.3,3.331v1.654a4.484,4.484,0,0,1-1.3,3.331,4.581,4.581,0,0,1-3.371,1.288Zm1.819-9.438v7.986h1.781a2.617,2.617,0,0,0,2.08-.887,3.345,3.345,0,0,0,.771-2.279v-1.669a3.325,3.325,0,0,0-.771-2.264,2.616,2.616,0,0,0-2.08-.887Z" transform="translate(94.969 1122.929)"/>
    <path id="Trazado_882778" data-name="Trazado 882778" d="M591.057,196.671h-4.266v3.451h5.029v1.452h-6.848v-10.9h6.8v1.46h-4.977v3.076h4.266Z" transform="translate(93.18 1122.929)"/>
    <path id="Trazado_882779" data-name="Trazado 882779" d="M520.333,220.628h-3.862l-.838,2.545h-1.879l3.8-10.9h1.729l3.757,10.9h-1.879Zm-3.36-1.519h2.866l-1.4-4.3H518.4Z" transform="translate(103.75 1119.723)"/>
    <path id="Trazado_882780" data-name="Trazado 882780" d="M527.813,221.721h5.531v1.452h-7.672v-1.138l5.322-8.3h-5.276v-1.46h7.433v1.093Z" transform="translate(101.981 1119.723)"/>
    <path id="Trazado_882781" data-name="Trazado 882781" d="M545.054,212.276v7.178a3.558,3.558,0,0,1-1.194,2.848,4.547,4.547,0,0,1-3.08,1.029,4.4,4.4,0,0,1-3.023-1.029,3.6,3.6,0,0,1-1.168-2.848v-7.178h1.818v7.178a2.218,2.218,0,0,0,2.372,2.424,2.5,2.5,0,0,0,1.781-.632,2.337,2.337,0,0,0,.674-1.793v-7.178Z" transform="translate(100.36 1119.723)"/>
    <path id="Trazado_882782" data-name="Trazado 882782" d="M550.844,221.721h5.1v1.452h-6.923v-10.9h1.819Z" transform="translate(98.515 1119.723)"/>
    <path id="Trazado_882783" data-name="Trazado 882783" d="M564.647,220.628h-3.862l-.838,2.545h-1.879l3.8-10.9H563.6l3.757,10.9h-1.879Zm-3.36-1.519h2.866l-1.4-4.3h-.045Z" transform="translate(97.172 1119.723)"/>
    <path id="Trazado_882784" data-name="Trazado 882784" d="M570.558,223.173v-10.9h3.6a4.566,4.566,0,0,1,3.371,1.3,4.5,4.5,0,0,1,1.3,3.331v1.654a4.484,4.484,0,0,1-1.3,3.331,4.581,4.581,0,0,1-3.371,1.288Zm1.819-9.438v7.986h1.782a2.616,2.616,0,0,0,2.08-.886,3.347,3.347,0,0,0,.771-2.28v-1.669a3.323,3.323,0,0,0-.771-2.264,2.617,2.617,0,0,0-2.08-.887Z" transform="translate(95.319 1119.723)"/>
    <path id="Trazado_882785" data-name="Trazado 882785" d="M591.117,218.677a4.607,4.607,0,0,1-1.253,3.313,4.3,4.3,0,0,1-3.26,1.313,4.156,4.156,0,0,1-3.181-1.313,4.661,4.661,0,0,1-1.228-3.313v-1.96a4.672,4.672,0,0,1,1.224-3.308,4.148,4.148,0,0,1,3.185-1.317,4.3,4.3,0,0,1,3.256,1.317,4.6,4.6,0,0,1,1.258,3.308ZM589.3,216.7a3.388,3.388,0,0,0-.726-2.238,2.422,2.422,0,0,0-1.968-.875,2.289,2.289,0,0,0-1.9.875,3.5,3.5,0,0,0-.692,2.238v1.976a3.529,3.529,0,0,0,.7,2.258,2.287,2.287,0,0,0,1.894.879,2.422,2.422,0,0,0,1.972-.875,3.44,3.44,0,0,0,.722-2.261Z" transform="translate(93.592 1119.75)"/>
    <path id="Trazado_882786" data-name="Trazado 882786" d="M474.586,406.143h-3.862l-.838,2.545h-1.879l3.8-10.9h1.729l3.757,10.9h-1.879Zm-3.36-1.519h2.866l-1.4-4.3h-.045Z" transform="translate(110.539 1092.189)"/>
    <path id="Trazado_882787" data-name="Trazado 882787" d="M482.066,407.236H487.6v1.452h-7.672V407.55l5.322-8.3H479.97v-1.46H487.4v1.093Z" transform="translate(108.771 1092.189)"/>
    <path id="Trazado_882788" data-name="Trazado 882788" d="M499.307,397.79v7.178a3.558,3.558,0,0,1-1.194,2.848,4.547,4.547,0,0,1-3.08,1.029,4.4,4.4,0,0,1-3.023-1.029,3.6,3.6,0,0,1-1.168-2.848V397.79h1.818v7.178a2.218,2.218,0,0,0,2.372,2.424,2.5,2.5,0,0,0,1.782-.632,2.337,2.337,0,0,0,.674-1.793V397.79Z" transform="translate(107.15 1092.189)"/>
    <path id="Trazado_882789" data-name="Trazado 882789" d="M505.1,407.236h5.1v1.452h-6.923v-10.9H505.1Z" transform="translate(105.305 1092.189)"/>
    <path id="Trazado_882790" data-name="Trazado 882790" d="M432.465,427.332l.195.794h.044l.187-.778,2.605-7.956h1.938l-3.892,10.9h-1.73l-3.884-10.9h1.938Z" transform="translate(116.488 1088.983)"/>
    <path id="Trazado_882954" data-name="Trazado 882954" d="M0,0H1.819V10.9H0Z" transform="translate(555.329 1508.374)"/>
    <path id="Trazado_882791" data-name="Trazado 882791" d="M454.245,425.792a4.605,4.605,0,0,1-1.254,3.312,4.305,4.305,0,0,1-3.26,1.314,4.157,4.157,0,0,1-3.181-1.314,4.659,4.659,0,0,1-1.228-3.312v-1.96a4.672,4.672,0,0,1,1.224-3.308,4.148,4.148,0,0,1,3.185-1.317,4.3,4.3,0,0,1,3.256,1.317,4.6,4.6,0,0,1,1.258,3.308Zm-1.819-1.976a3.388,3.388,0,0,0-.726-2.238,2.422,2.422,0,0,0-1.968-.875,2.288,2.288,0,0,0-1.9.875,3.5,3.5,0,0,0-.692,2.238v1.976a3.526,3.526,0,0,0,.7,2.257,2.287,2.287,0,0,0,1.894.88,2.423,2.423,0,0,0,1.972-.875,3.44,3.44,0,0,0,.722-2.261Z" transform="translate(113.906 1089.011)"/>
    <path id="Trazado_882792" data-name="Trazado 882792" d="M459.886,428.836h5.1v1.452h-6.923v-10.9h1.819Z" transform="translate(112.015 1088.983)"/>
    <path id="Trazado_882793" data-name="Trazado 882793" d="M473.689,427.743h-3.862l-.838,2.545h-1.879l3.8-10.9h1.729l3.757,10.9h-1.879Zm-3.36-1.519H473.2l-1.4-4.3h-.045Z" transform="translate(110.672 1088.983)"/>
    <path id="Trazado_882794" data-name="Trazado 882794" d="M487.41,426.7l.015.045a3.361,3.361,0,0,1-1.07,2.66,4.215,4.215,0,0,1-2.972,1.014,4,4,0,0,1-3.084-1.284,4.656,4.656,0,0,1-1.182-3.281v-2.074a4.708,4.708,0,0,1,1.168-3.282,3.913,3.913,0,0,1,3.046-1.291,4.4,4.4,0,0,1,3.027.981,3.324,3.324,0,0,1,1.074,2.687l-.014.045h-1.759a2.239,2.239,0,0,0-.591-1.673,2.383,2.383,0,0,0-1.736-.58,2.066,2.066,0,0,0-1.755.879,3.646,3.646,0,0,0-.647,2.22v2.088a3.624,3.624,0,0,0,.658,2.234,2.126,2.126,0,0,0,1.8.88,2.038,2.038,0,0,0,2.275-2.268Z" transform="translate(108.891 1089.011)"/>
    <path id="Trazado_882795" data-name="Trazado 882795" d="M497.014,425.386h-4.266v3.451h5.029v1.452h-6.848v-10.9h6.8v1.46h-4.978v3.076h4.266Z" transform="translate(107.137 1088.983)"/>
    <path id="Trazado_882796" data-name="Trazado 882796" d="M509.4,425.792a4.605,4.605,0,0,1-1.253,3.312,4.306,4.306,0,0,1-3.26,1.314A4.157,4.157,0,0,1,501.7,429.1a4.659,4.659,0,0,1-1.228-3.312v-1.96a4.672,4.672,0,0,1,1.224-3.308,4.148,4.148,0,0,1,3.185-1.317,4.3,4.3,0,0,1,3.256,1.317,4.6,4.6,0,0,1,1.258,3.308Zm-1.819-1.976a3.388,3.388,0,0,0-.726-2.238,2.422,2.422,0,0,0-1.968-.875,2.288,2.288,0,0,0-1.9.875,3.5,3.5,0,0,0-.692,2.238v1.976a3.526,3.526,0,0,0,.7,2.257,2.287,2.287,0,0,0,1.894.88,2.423,2.423,0,0,0,1.972-.875,3.44,3.44,0,0,0,.722-2.261Z" transform="translate(105.721 1089.011)"/>
    <path id="Trazado_882797" data-name="Trazado 882797" d="M162.5,406.116l.2.794h.044l.187-.778,2.6-7.955h1.938l-3.892,10.9h-1.73l-3.884-10.9H159.9Z" transform="translate(156.555 1092.132)"/>
    <path id="Trazado_882955" data-name="Trazado 882955" d="M0,0H1.819V10.9H0Z" transform="translate(325.432 1490.308)"/>
    <path id="Trazado_882798" data-name="Trazado 882798" d="M184.28,404.576a4.607,4.607,0,0,1-1.254,3.313,4.3,4.3,0,0,1-3.26,1.313,4.156,4.156,0,0,1-3.181-1.313,4.661,4.661,0,0,1-1.228-3.313v-1.96a4.672,4.672,0,0,1,1.224-3.308,4.148,4.148,0,0,1,3.185-1.317,4.3,4.3,0,0,1,3.256,1.317,4.6,4.6,0,0,1,1.258,3.308Zm-1.819-1.976a3.386,3.386,0,0,0-.726-2.237,2.42,2.42,0,0,0-1.968-.876,2.287,2.287,0,0,0-1.9.876,3.5,3.5,0,0,0-.692,2.237v1.976a3.529,3.529,0,0,0,.7,2.258,2.287,2.287,0,0,0,1.894.88,2.423,2.423,0,0,0,1.972-.876,3.44,3.44,0,0,0,.722-2.261Z" transform="translate(153.974 1092.16)"/>
    <path id="Trazado_882799" data-name="Trazado 882799" d="M189.921,407.621h5.1v1.452H188.1v-10.9h1.819Z" transform="translate(152.082 1092.132)"/>
    <path id="Trazado_882800" data-name="Trazado 882800" d="M204.128,404.17h-4.266v3.451h5.029v1.452h-6.848v-10.9h6.8v1.459h-4.978v3.077h4.266Z" transform="translate(150.607 1092.132)"/>
    <path id="Trazado_882801" data-name="Trazado 882801" d="M215.466,399.635H212.1v9.439h-1.819v-9.439h-3.315v-1.459h8.5Z" transform="translate(149.283 1092.132)"/>
    <path id="Trazado_882802" data-name="Trazado 882802" d="M223.131,406.528H219.27l-.838,2.544h-1.879l3.8-10.9h1.729l3.757,10.9h-1.879Zm-3.36-1.52h2.866l-1.4-4.3h-.045Z" transform="translate(147.86 1092.132)"/>
    <path id="Trazado_882803" data-name="Trazado 882803" d="M161,426.153v4.52h-1.819v-10.9h3.75a4.3,4.3,0,0,1,2.814.823,2.877,2.877,0,0,1,1,2.35,2.425,2.425,0,0,1-.439,1.455,3,3,0,0,1-1.276.978,2.3,2.3,0,0,1,1.328.95,3.045,3.045,0,0,1,.408,1.632v.905a3.7,3.7,0,0,0,.119.936,1.345,1.345,0,0,0,.4.7v.172H165.4a1.2,1.2,0,0,1-.382-.771,6.678,6.678,0,0,1-.083-1.047v-.876a1.82,1.82,0,0,0-.483-1.332,1.75,1.75,0,0,0-1.314-.494Zm0-1.46h1.833a2.469,2.469,0,0,0,1.594-.419,1.572,1.572,0,0,0,.5-1.28,1.693,1.693,0,0,0-.494-1.291,2.119,2.119,0,0,0-1.5-.468H161Z" transform="translate(156.375 1088.926)"/>
    <path id="Trazado_882804" data-name="Trazado 882804" d="M179.13,426.177a4.609,4.609,0,0,1-1.254,3.313,4.308,4.308,0,0,1-3.26,1.313,4.159,4.159,0,0,1-3.181-1.313,4.663,4.663,0,0,1-1.228-3.313v-1.96a4.672,4.672,0,0,1,1.224-3.308,4.148,4.148,0,0,1,3.185-1.317,4.3,4.3,0,0,1,3.256,1.317,4.6,4.6,0,0,1,1.258,3.308Zm-1.819-1.976a3.388,3.388,0,0,0-.726-2.238,2.422,2.422,0,0,0-1.968-.875,2.288,2.288,0,0,0-1.9.875,3.5,3.5,0,0,0-.692,2.238v1.976a3.525,3.525,0,0,0,.7,2.257,2.285,2.285,0,0,0,1.894.88,2.423,2.423,0,0,0,1.972-.875,3.44,3.44,0,0,0,.722-2.261Z" transform="translate(154.738 1088.953)"/>
    <path id="Trazado_882805" data-name="Trazado 882805" d="M187.2,419.776h1.811V427.4a3.328,3.328,0,0,1-.955,2.5,3.4,3.4,0,0,1-2.473.927,3.751,3.751,0,0,1-2.553-.823,2.922,2.922,0,0,1-.905-2.4l.015-.044H183.9a1.873,1.873,0,0,0,.445,1.374,1.676,1.676,0,0,0,1.239.445,1.452,1.452,0,0,0,1.163-.538,2.16,2.16,0,0,0,.453-1.437Z" transform="translate(152.969 1088.926)"/>
    <path id="Trazado_882956" data-name="Trazado 882956" d="M0,0H1.819V10.9H0Z" transform="translate(344.406 1508.701)"/>
    <path id="Trazado_882806" data-name="Trazado 882806" d="M199.63,429.221h5.531v1.452h-7.672v-1.138l5.322-8.3h-5.276v-1.46h7.433v1.093Z" transform="translate(150.689 1088.926)"/>
    <path id="Trazado_882807" data-name="Trazado 882807" d="M216.844,426.177a4.609,4.609,0,0,1-1.254,3.313,4.308,4.308,0,0,1-3.26,1.313,4.159,4.159,0,0,1-3.181-1.313,4.663,4.663,0,0,1-1.228-3.313v-1.96a4.672,4.672,0,0,1,1.224-3.308,4.148,4.148,0,0,1,3.185-1.317,4.3,4.3,0,0,1,3.256,1.317,4.6,4.6,0,0,1,1.258,3.308Zm-1.819-1.976a3.388,3.388,0,0,0-.726-2.238,2.422,2.422,0,0,0-1.968-.875,2.288,2.288,0,0,0-1.9.875,3.5,3.5,0,0,0-.692,2.238v1.976a3.525,3.525,0,0,0,.7,2.257,2.285,2.285,0,0,0,1.894.88,2.422,2.422,0,0,0,1.972-.875,3.44,3.44,0,0,0,.722-2.261Z" transform="translate(149.141 1088.953)"/>
    <path id="Trazado_882808" data-name="Trazado 882808" d="M2.882,200.295v4.52H1.063v-10.9h3.75a4.3,4.3,0,0,1,2.814.822,2.877,2.877,0,0,1,1,2.351,2.429,2.429,0,0,1-.438,1.455,3.009,3.009,0,0,1-1.276.977,2.307,2.307,0,0,1,1.328.95,3.045,3.045,0,0,1,.408,1.632v.905a3.658,3.658,0,0,0,.119.936,1.335,1.335,0,0,0,.4.7v.172H7.291a1.192,1.192,0,0,1-.382-.771A6.671,6.671,0,0,1,6.827,203v-.876a1.826,1.826,0,0,0-.483-1.332,1.755,1.755,0,0,0-1.314-.494Zm0-1.46H4.715a2.467,2.467,0,0,0,1.594-.418,1.575,1.575,0,0,0,.5-1.281,1.693,1.693,0,0,0-.494-1.292,2.119,2.119,0,0,0-1.5-.467H2.882Z" transform="translate(179.842 1122.447)"/>
    <path id="Trazado_882809" data-name="Trazado 882809" d="M21.016,200.32a4.605,4.605,0,0,1-1.254,3.312,4.305,4.305,0,0,1-3.26,1.314,4.157,4.157,0,0,1-3.181-1.314,4.659,4.659,0,0,1-1.228-3.312v-1.96a4.672,4.672,0,0,1,1.224-3.308,4.148,4.148,0,0,1,3.185-1.317,4.3,4.3,0,0,1,3.256,1.317,4.6,4.6,0,0,1,1.258,3.308ZM19.2,198.344a3.388,3.388,0,0,0-.726-2.238,2.422,2.422,0,0,0-1.968-.875,2.288,2.288,0,0,0-1.9.875,3.5,3.5,0,0,0-.692,2.238v1.976a3.526,3.526,0,0,0,.7,2.257,2.287,2.287,0,0,0,1.894.88,2.422,2.422,0,0,0,1.972-.875,3.44,3.44,0,0,0,.722-2.261Z" transform="translate(178.205 1122.475)"/>
    <path id="Trazado_882810" data-name="Trazado 882810" d="M29.086,193.918H30.9v7.627a3.328,3.328,0,0,1-.955,2.5,3.4,3.4,0,0,1-2.473.927,3.751,3.751,0,0,1-2.553-.823,2.922,2.922,0,0,1-.905-2.4l.015-.044h1.759a1.869,1.869,0,0,0,.445,1.373,1.673,1.673,0,0,0,1.239.445,1.452,1.452,0,0,0,1.163-.538,2.16,2.16,0,0,0,.453-1.437Z" transform="translate(176.437 1122.447)"/>
    <path id="Trazado_882811" data-name="Trazado 882811" d="M43.269,200.32a4.605,4.605,0,0,1-1.254,3.312,4.305,4.305,0,0,1-3.26,1.314,4.157,4.157,0,0,1-3.181-1.314,4.659,4.659,0,0,1-1.228-3.312v-1.96a4.672,4.672,0,0,1,1.224-3.308,4.148,4.148,0,0,1,3.185-1.317,4.3,4.3,0,0,1,3.256,1.317,4.6,4.6,0,0,1,1.258,3.308Zm-1.819-1.976a3.388,3.388,0,0,0-.726-2.238,2.422,2.422,0,0,0-1.968-.875,2.288,2.288,0,0,0-1.9.875,3.5,3.5,0,0,0-.692,2.238v1.976a3.526,3.526,0,0,0,.7,2.257,2.287,2.287,0,0,0,1.894.88,2.422,2.422,0,0,0,1.972-.875,3.44,3.44,0,0,0,.722-2.261Z" transform="translate(174.902 1122.475)"/>
    <path id="Trazado_882812" data-name="Trazado 882812" d="M6.578,223.87H2.717l-.838,2.545H0l3.8-10.9H5.531l3.757,10.9H7.41Zm-3.36-1.519H6.085l-1.4-4.3H4.64Z" transform="translate(180 1119.242)"/>
    <path id="Trazado_882813" data-name="Trazado 882813" d="M21,226.415H19.18l-4.828-7.852-.044.015v7.836H12.489v-10.9h1.819l4.828,7.852.044-.015v-7.836H21Z" transform="translate(178.146 1119.242)"/>
    <path id="Trazado_882814" data-name="Trazado 882814" d="M30.845,223.87H26.984l-.838,2.545H24.267l3.8-10.9H29.8l3.757,10.9H31.677Zm-3.36-1.519h2.866l-1.4-4.3h-.045Z" transform="translate(176.398 1119.242)"/>
    <path id="Trazado_882815" data-name="Trazado 882815" d="M38.575,221.895v4.52H36.756v-10.9h3.75a4.3,4.3,0,0,1,2.814.823,2.877,2.877,0,0,1,1,2.35,2.429,2.429,0,0,1-.438,1.456,3.008,3.008,0,0,1-1.276.977,2.3,2.3,0,0,1,1.328.95,3.046,3.046,0,0,1,.408,1.632v.905a3.663,3.663,0,0,0,.119.936,1.339,1.339,0,0,0,.4.7v.172H42.984a1.191,1.191,0,0,1-.382-.771,6.679,6.679,0,0,1-.083-1.047v-.876a1.824,1.824,0,0,0-.483-1.332,1.752,1.752,0,0,0-1.314-.494Zm0-1.46h1.833A2.467,2.467,0,0,0,42,220.016a1.572,1.572,0,0,0,.5-1.28,1.691,1.691,0,0,0-.494-1.291,2.119,2.119,0,0,0-1.5-.468H38.575Z" transform="translate(174.545 1119.242)"/>
    <path id="Trazado_882816" data-name="Trazado 882816" d="M53.723,223.87H49.862l-.838,2.545H47.145l3.8-10.9h1.729l3.757,10.9H54.555Zm-3.36-1.519H53.23l-1.4-4.3h-.045Z" transform="translate(173.003 1119.242)"/>
    <path id="Trazado_882817" data-name="Trazado 882817" d="M68.144,226.415H66.325L61.5,218.564l-.044.015v7.836H59.634v-10.9h1.819l4.828,7.852.044-.015v-7.836h1.819Z" transform="translate(171.149 1119.242)"/>
    <path id="Trazado_882818" data-name="Trazado 882818" d="M76.564,215.518h1.811v7.627a3.328,3.328,0,0,1-.955,2.5,3.4,3.4,0,0,1-2.473.927,3.751,3.751,0,0,1-2.553-.823,2.922,2.922,0,0,1-.905-2.4l.015-.044h1.759a1.872,1.872,0,0,0,.445,1.374,1.673,1.673,0,0,0,1.239.445,1.452,1.452,0,0,0,1.163-.538,2.16,2.16,0,0,0,.453-1.437Z" transform="translate(169.39 1119.242)"/>
    <path id="Trazado_882819" data-name="Trazado 882819" d="M87.569,223.87H83.708l-.838,2.545H80.991l3.8-10.9h1.729l3.757,10.9H88.4Zm-3.359-1.519h2.866l-1.4-4.3h-.045Z" transform="translate(167.979 1119.242)"/>
    <path id="Trazado_882820" data-name="Trazado 882820" d="M93.48,226.416v-10.9h3.6a4.566,4.566,0,0,1,3.371,1.3,4.5,4.5,0,0,1,1.3,3.331V221.8a4.484,4.484,0,0,1-1.3,3.331,4.581,4.581,0,0,1-3.371,1.288Zm1.819-9.438v7.986H97.08a2.616,2.616,0,0,0,2.08-.886,3.347,3.347,0,0,0,.771-2.28v-1.669a3.323,3.323,0,0,0-.771-2.264,2.617,2.617,0,0,0-2.08-.887Z" transform="translate(166.126 1119.242)"/>
    <path id="Trazado_882821" data-name="Trazado 882821" d="M114.039,221.919a4.607,4.607,0,0,1-1.254,3.313,4.3,4.3,0,0,1-3.26,1.313,4.156,4.156,0,0,1-3.181-1.313,4.661,4.661,0,0,1-1.228-3.313v-1.96a4.672,4.672,0,0,1,1.224-3.308,4.148,4.148,0,0,1,3.185-1.317,4.3,4.3,0,0,1,3.256,1.317,4.6,4.6,0,0,1,1.258,3.308Zm-1.819-1.976a3.388,3.388,0,0,0-.726-2.238,2.422,2.422,0,0,0-1.968-.875,2.288,2.288,0,0,0-1.9.875,3.5,3.5,0,0,0-.692,2.238v1.976a3.529,3.529,0,0,0,.7,2.258,2.287,2.287,0,0,0,1.894.879,2.423,2.423,0,0,0,1.972-.875,3.44,3.44,0,0,0,.722-2.261Z" transform="translate(164.399 1119.27)"/>
    <path id="Trazado_882822" data-name="Trazado 882822" d="M183.342,135.039l-2.307-1.492-1.472,1.225-1.49-.964,7-5.566,1.461.945-2.212,8.664-1.49-.965Zm-1.231-2.384,1.608,1.041.835-3.016-.029-.02Z" transform="translate(153.571 1132.195)" fill="#fff"/>
    <path id="Trazado_882823" data-name="Trazado 882823" d="M191.971,142.525l-1.427-.923.234-6.656-.032-.014-3.1,4.8-1.427-.923,4.6-7.118,1.427.923-.232,6.651.032.014,3.1-4.791,1.427.923Z" transform="translate(152.362 1131.684)" fill="#fff"/>
    <path id="Trazado_882824" data-name="Trazado 882824" d="M199.219,145.306l-2.308-1.492-1.472,1.225-1.491-.963,7-5.566,1.462.945-2.212,8.663-1.49-.964Zm-1.232-2.384,1.609,1.04.835-3.017-.03-.019Z" transform="translate(151.214 1130.671)" fill="#fff"/>
    <path id="Trazado_882825" data-name="Trazado 882825" d="M205.363,147.149l-1.839,2.845-1.427-.923,4.6-7.118,2.464,1.594a3.521,3.521,0,0,1,1.546,1.786,2.234,2.234,0,0,1-.314,1.991,1.855,1.855,0,0,1-.9.759,2.419,2.419,0,0,1-1.265.094,1.823,1.823,0,0,1,.506,1.207,2.344,2.344,0,0,1-.419,1.255l-.339.523a3.118,3.118,0,0,0-.322.675,1.028,1.028,0,0,0-.036.66l-.066.1-1.472-.951a.946.946,0,0,1,.083-.681,5.609,5.609,0,0,1,.4-.735l.326-.5a1.347,1.347,0,0,0,.245-1.016,1.315,1.315,0,0,0-.633-.829Zm.711-1.1,1.012.654a1.594,1.594,0,0,0,1.059.324,1.118,1.118,0,0,0,.78-.563,1.228,1.228,0,0,0,.207-.968,1.425,1.425,0,0,0-.681-.849l-1.036-.671Z" transform="translate(150.005 1130.16)" fill="#fff"/>
    <path id="Trazado_882826" data-name="Trazado 882826" d="M214.191,154.985l-2.308-1.492-1.472,1.225-1.491-.964,7-5.566,1.461.945-2.212,8.664-1.491-.965Zm-1.232-2.384,1.609,1.041.835-3.016-.03-.02Z" transform="translate(148.992 1129.234)" fill="#fff"/>
    <path id="Trazado_882827" data-name="Trazado 882827" d="M222.82,162.473l-1.427-.923.234-6.656-.032-.014-3.1,4.8-1.427-.923,4.6-7.118,1.427.922-.232,6.652.033.014,3.1-4.791,1.426.923Z" transform="translate(147.783 1128.724)" fill="#fff"/>
    <path id="Trazado_882828" data-name="Trazado 882828" d="M232.862,159.151l1.422.92-3.176,4.914a2.655,2.655,0,0,1-1.736,1.262,2.732,2.732,0,0,1-2.069-.451,3.194,3.194,0,0,1-1.429-1.714,2.3,2.3,0,0,1,.41-2.028l.029-.023,1.388.9a1.337,1.337,0,0,0-.263,1.018,1.225,1.225,0,0,0,.572.755.923.923,0,0,0,.851.089,1.7,1.7,0,0,0,.823-.726Z" transform="translate(146.489 1127.607)" fill="#fff"/>
    <path id="Trazado_882829" data-name="Trazado 882829" d="M236.366,169.325l-2.308-1.492-1.472,1.224-1.491-.963,7-5.566,1.461.946-2.212,8.662-1.49-.964Zm-1.232-2.384,1.609,1.041.835-3.017-.03-.019Z" transform="translate(145.701 1127.106)" fill="#fff"/>
    <path id="Trazado_882830" data-name="Trazado 882830" d="M239.242,173.09l4.6-7.117,2.483,1.606a3.5,3.5,0,0,1,1.612,2.224,3.42,3.42,0,0,1-.537,2.685l-.761,1.179a3.407,3.407,0,0,1-2.229,1.592,3.509,3.509,0,0,1-2.687-.562ZM244.56,168l-3.183,4.923,1.056.683a1.657,1.657,0,0,0,1.474.207,2.449,2.449,0,0,0,1.3-1.068l.768-1.187a2.44,2.44,0,0,0,.436-1.619,1.66,1.66,0,0,0-.8-1.255Z" transform="translate(144.492 1126.595)" fill="#fff"/>
    <path id="Trazado_882831" data-name="Trazado 882831" d="M254.851,179.113a3.562,3.562,0,0,1-2.228,1.634,3.719,3.719,0,0,1-4.29-2.778,3.573,3.573,0,0,1,.579-2.7l.828-1.281a3.586,3.586,0,0,1,2.218-1.634,3.352,3.352,0,0,1,2.688.522,3.417,3.417,0,0,1,1.6,2.252,3.554,3.554,0,0,1-.568,2.7Zm-.588-2.211a2.57,2.57,0,0,0,.467-1.632,1.64,1.64,0,0,0-.8-1.276,1.592,1.592,0,0,0-1.472-.2,2.617,2.617,0,0,0-1.285,1.1l-.835,1.291a2.636,2.636,0,0,0-.485,1.641,1.6,1.6,0,0,0,.789,1.266,1.624,1.624,0,0,0,1.489.207,2.617,2.617,0,0,0,1.3-1.113Z" transform="translate(143.152 1125.661)" fill="#fff"/>
    <path id="Trazado_882832" data-name="Trazado 882832" d="M322.061,124.865l.032,2.747,1.834.549.02,1.776-8.507-2.763-.02-1.741,8.443-2.942.02,1.776Zm-1.306,2.343-.021-1.915-2.976.972v.035Z" transform="translate(133.186 1133.049)"/>
    <path id="Trazado_882833" data-name="Trazado 882833" d="M321.549,115.642v-.035l-6.271-2.107-.026-2.218,8.476-.1.02,1.7-5.786.066-.005.035,5.815,2.03.013,1.153L318,118.33l.007.035,5.8-.066.019,1.7-8.475.1-.026-2.229Z" transform="translate(133.211 1134.727)"/>
    <path id="Trazado_882834" data-name="Trazado 882834" d="M321.82,103.654l.032,2.747,1.834.55.02,1.776-8.507-2.763-.02-1.741,8.443-2.943.02,1.776ZM320.514,106l-.021-1.915-2.976.973v.035Z" transform="translate(133.222 1136.196)"/>
    <path id="Trazado_882835" data-name="Trazado 882835" d="M320.192,97.53l3.388-.037.02,1.7-8.476.1-.033-2.934a3.522,3.522,0,0,1,.634-2.275,2.239,2.239,0,0,1,1.833-.839,1.854,1.854,0,0,1,1.13.334,2.412,2.412,0,0,1,.777,1,1.825,1.825,0,0,1,.727-1.088,2.336,2.336,0,0,1,1.276-.343l.623-.008a3.109,3.109,0,0,0,.741-.1,1.024,1.024,0,0,0,.57-.336l.122,0,.02,1.753a.944.944,0,0,1-.614.307,5.493,5.493,0,0,1-.831.076l-.6.007a1.352,1.352,0,0,0-.984.358,1.311,1.311,0,0,0-.341.984Zm-1.31.015-.014-1.2a1.593,1.593,0,0,0-.315-1.062,1.122,1.122,0,0,0-.9-.339,1.231,1.231,0,0,0-.921.363,1.417,1.417,0,0,0-.332,1.036l.014,1.235Z" transform="translate(133.235 1137.471)"/>
    <path id="Trazado_882957" data-name="Trazado 882957" d="M0,0H8.475V1.7H0Z" transform="matrix(1, -0.012, 0.012, 1, 448.252, 1227.348)"/>
    <path id="Trazado_882836" data-name="Trazado 882836" d="M322.131,84.653l-.043-3.8,1.3-.014.063,5.5-8.475.1-.02-1.7Z" transform="translate(133.254 1139.229)"/>
    <path id="Trazado_882837" data-name="Trazado 882837" d="M322.042,76.875l-.043-3.8,1.3-.014.062,5.5-8.475.1-.02-1.7Z" transform="translate(133.268 1140.385)"/>
    <path id="Trazado_882838" data-name="Trazado 882838" d="M319.7,63.9a3.559,3.559,0,0,1,2.592.954,3.719,3.719,0,0,1,.055,5.111,3.57,3.57,0,0,1-2.568,1.007l-1.525.017a3.588,3.588,0,0,1-2.587-.945,3.357,3.357,0,0,1-1.05-2.53,3.418,3.418,0,0,1,.992-2.579,3.554,3.554,0,0,1,2.565-1.018Zm-1.518,1.711a2.559,2.559,0,0,0-1.619.514,1.636,1.636,0,0,0-.618,1.374,1.588,1.588,0,0,0,.649,1.335,2.618,2.618,0,0,0,1.63.462l1.537-.017a2.64,2.64,0,0,0,1.636-.5,1.6,1.6,0,0,0,.618-1.357,1.619,1.619,0,0,0-.649-1.355,2.609,2.609,0,0,0-1.647-.471Z" transform="translate(133.305 1141.744)"/>
    <path id="Trazado_882839" data-name="Trazado 882839" d="M391.729,167.525l.3.371.031-.016-.11-.445-1.082-6.372,1.609-.793,1.16,8.878-1.567.772-6.324-6.333,1.608-.792Z" transform="translate(122.748 1127.441)"/>
    <path id="Trazado_882840" data-name="Trazado 882840" d="M400.961,161.549l-2.82,1.389,1.07,2.172,3.353-1.652.577,1.17-4.878,2.4-3.744-7.6,4.866-2.4.579,1.175-3.342,1.646.942,1.912,2.82-1.389Z" transform="translate(121.446 1127.922)"/>
    <path id="Trazado_882841" data-name="Trazado 882841" d="M405.274,159.91l1.5,3.039-1.525.751-3.745-7.6,2.632-1.3a3.516,3.516,0,0,1,2.326-.41,2.241,2.241,0,0,1,1.548,1.292,1.861,1.861,0,0,1,.186,1.163,2.41,2.41,0,0,1-.567,1.133,1.821,1.821,0,0,1,1.3.186,2.343,2.343,0,0,1,.861,1l.275.559a3.07,3.07,0,0,0,.414.623,1.026,1.026,0,0,0,.548.37l.055.11-1.571.774a.945.945,0,0,1-.542-.422,5.57,5.57,0,0,1-.428-.717l-.265-.538a1.343,1.343,0,0,0-.747-.732,1.308,1.308,0,0,0-1.035.118Zm-.579-1.175,1.082-.532a1.588,1.588,0,0,0,.821-.743,1.117,1.117,0,0,0-.082-.958,1.234,1.234,0,0,0-.726-.675,1.421,1.421,0,0,0-1.078.149l-1.107.545Z" transform="translate(120.41 1128.323)"/>
    <path id="Trazado_882842" data-name="Trazado 882842" d="M413.249,159.768l-3.745-7.6,2.654-1.306a3.494,3.494,0,0,1,2.736-.241,3.415,3.415,0,0,1,2.028,1.839l.621,1.259a3.412,3.412,0,0,1,.221,2.73,3.512,3.512,0,0,1-1.862,2.017Zm-1.641-7.18,2.59,5.259,1.128-.555a1.66,1.66,0,0,0,.935-1.158,2.456,2.456,0,0,0-.249-1.665l-.626-1.27a2.422,2.422,0,0,0-1.164-1.2,1.661,1.661,0,0,0-1.487.038Z" transform="translate(119.222 1128.9)"/>
    <path id="Trazado_882843" data-name="Trazado 882843" d="M424.257,150.075l-2.82,1.389,1.07,2.172,3.354-1.651.576,1.17-4.877,2.4-3.745-7.6,4.867-2.4.579,1.175-3.342,1.647.942,1.911,2.82-1.389Z" transform="translate(117.989 1129.625)"/>
    <path id="Trazado_882844" data-name="Trazado 882844" d="M406.848,260.782l-2.188-1.663-1.56,1.11-1.414-1.075,7.4-5.018,1.386,1.053-2.862,8.47-1.414-1.074ZM405.8,258.31l1.525,1.159,1.061-2.945-.028-.02Z" transform="translate(120.382 1113.51)" fill="#fff"/>
    <path id="Trazado_882845" data-name="Trazado 882845" d="M411.483,264.661l3.1,2.354-.789,1.037-4.69-3.564.535-.705,6.8-2.718-3-2.278.792-1.043,4.607,3.5-.514.677Z" transform="translate(119.282 1112.975)" fill="#fff"/>
    <path id="Trazado_882846" data-name="Trazado 882846" d="M426.4,266.842l-3.358,4.417a2.783,2.783,0,0,1-2.112,1.209,3.66,3.66,0,0,1-2.45-.846,3.622,3.622,0,0,1-1.459-2.126,2.8,2.8,0,0,1,.607-2.353l3.357-4.416,1.358,1.032-3.356,4.416a1.747,1.747,0,0,0-.425,1.309,1.678,1.678,0,0,0,.708,1.1,1.71,1.71,0,0,0,1.263.4,1.731,1.731,0,0,0,1.151-.755l3.358-4.417Z" transform="translate(118.116 1112.235)" fill="#fff"/>
    <path id="Trazado_882847" data-name="Trazado 882847" d="M425.539,275.344l3.021,2.3-.789,1.039-4.375-3.325,5.129-6.749,1.353,1.03Z" transform="translate(117.16 1111.362)" fill="#fff"/>
    <path id="Trazado_882848" data-name="Trazado 882848" d="M314.78,337.569l.467-.1v-.035l-.447-.1-6.176-1.907.018-1.793,8.448,2.964-.018,1.747-8.5,2.792.018-1.793Z" transform="translate(134.203 1101.712)" fill="#fff"/>
    <path id="Trazado_882958" data-name="Trazado 882958" d="M0,0H1.7V8.476H0Z" transform="translate(442.854 1434.404) rotate(-89.425)" fill="#fff"/>
    <path id="Trazado_882849" data-name="Trazado 882849" d="M313.757,320.561a3.558,3.558,0,0,1,2.572,1.01,3.717,3.717,0,0,1-.053,5.11,3.57,3.57,0,0,1-2.589.952l-1.525-.015a3.581,3.581,0,0,1-2.566-1,3.356,3.356,0,0,1-1-2.551,3.413,3.413,0,0,1,1.047-2.556,3.55,3.55,0,0,1,2.585-.965Zm-1.553,1.679a2.564,2.564,0,0,0-1.629.479,1.637,1.637,0,0,0-.647,1.362,1.585,1.585,0,0,0,.621,1.347,2.616,2.616,0,0,0,1.619.5l1.537.015a2.636,2.636,0,0,0,1.646-.468A1.6,1.6,0,0,0,316,324.13a1.626,1.626,0,0,0-.621-1.369,2.619,2.619,0,0,0-1.637-.5Z" transform="translate(134.198 1103.653)" fill="#fff"/>
    <path id="Trazado_882850" data-name="Trazado 882850" d="M315.988,316.352l.037-3.795,1.3.013-.054,5.5-8.476-.083.017-1.7Z" transform="translate(134.168 1104.84)" fill="#fff"/>
    <path id="Trazado_882851" data-name="Trazado 882851" d="M313.674,305.406l-.031,3.143,2.422.025.037-3.738,1.3.013-.054,5.437-8.475-.083.053-5.425,1.31.013-.037,3.726,2.131.021.031-3.144Z" transform="translate(134.157 1105.994)" fill="#fff"/>
    <path id="Trazado_882852" data-name="Trazado 882852" d="M310.321,296.437l-.024,2.422,7.165.071-.016,1.7-7.166-.071-.023,2.387-1.31-.014.064-6.508Z" transform="translate(134.146 1107.233)" fill="#fff"/>
    <path id="Trazado_882853" data-name="Trazado 882853" d="M315.721,290.558l-.027,2.748,1.822.588-.018,1.776-8.447-2.941.017-1.741,8.5-2.763L317.554,290Zm-1.357,2.315.019-1.915-2.995.908v.035Z" transform="translate(134.131 1108.451)" fill="#fff"/>
    <path id="Trazado_882854" data-name="Trazado 882854" d="M198.062,282.877l1.927,2.787-1.4.967-4.82-6.973,2.413-1.668a3.516,3.516,0,0,1,2.241-.745,2.235,2.235,0,0,1,1.721,1.05,1.858,1.858,0,0,1,.355,1.124,2.4,2.4,0,0,1-.4,1.2,1.834,1.834,0,0,1,1.309-.006,2.355,2.355,0,0,1,1,.867l.354.512a3.09,3.09,0,0,0,.5.556,1.037,1.037,0,0,0,.6.286l.07.1-1.442,1a.945.945,0,0,1-.6-.337,5.682,5.682,0,0,1-.529-.646l-.341-.493a1.344,1.344,0,0,0-.846-.615,1.313,1.313,0,0,0-1.007.267Zm-.745-1.077.991-.686a1.6,1.6,0,0,0,.705-.855,1.119,1.119,0,0,0-.223-.935,1.233,1.233,0,0,0-.816-.562,1.424,1.424,0,0,0-1.045.306l-1.015.7Z" transform="translate(151.241 1110.081)" fill="#fff"/>
    <path id="Trazado_882855" data-name="Trazado 882855" d="M209.785,274.758a3.565,3.565,0,0,1,.659,2.683,3.72,3.72,0,0,1-4.206,2.9,3.576,3.576,0,0,1-2.272-1.566l-.866-1.254a3.577,3.577,0,0,1-.663-2.673,3.357,3.357,0,0,1,1.51-2.286,3.416,3.416,0,0,1,2.693-.619,3.557,3.557,0,0,1,2.279,1.556Zm-2.268-.3a2.553,2.553,0,0,0-1.33-1.055,1.636,1.636,0,0,0-1.486.256,1.589,1.589,0,0,0-.743,1.284,2.621,2.621,0,0,0,.528,1.609l.875,1.264a2.629,2.629,0,0,0,1.33,1.076,1.6,1.6,0,0,0,1.472-.246,1.625,1.625,0,0,0,.76-1.3,2.6,2.6,0,0,0-.531-1.628Z" transform="translate(149.961 1110.877)" fill="#fff"/>
    <path id="Trazado_882856" data-name="Trazado 882856" d="M212.294,267.108l1.394-.963,3.326,4.814a2.653,2.653,0,0,1,.5,2.085,2.734,2.734,0,0,1-1.208,1.74,3.194,3.194,0,0,1-2.13.665,2.3,2.3,0,0,1-1.718-1.155l-.009-.035,1.359-.939a1.338,1.338,0,0,0,.841.633,1.221,1.221,0,0,0,.916-.242.917.917,0,0,0,.406-.752,1.688,1.688,0,0,0-.356-1.038Z" transform="translate(148.492 1111.728)" fill="#fff"/>
    <path id="Trazado_882857" data-name="Trazado 882857" d="M224.1,264.862a3.569,3.569,0,0,1,.66,2.683,3.413,3.413,0,0,1-1.53,2.292,3.377,3.377,0,0,1-2.677.612,3.572,3.572,0,0,1-2.271-1.566l-.867-1.254a3.577,3.577,0,0,1-.663-2.673,3.353,3.353,0,0,1,1.509-2.286,3.416,3.416,0,0,1,2.693-.619,3.557,3.557,0,0,1,2.279,1.556Zm-2.268-.3a2.55,2.55,0,0,0-1.33-1.055,1.637,1.637,0,0,0-1.486.256,1.589,1.589,0,0,0-.743,1.284,2.622,2.622,0,0,0,.529,1.609l.874,1.264A2.631,2.631,0,0,0,221.007,269a1.6,1.6,0,0,0,1.472-.246,1.625,1.625,0,0,0,.759-1.3,2.607,2.607,0,0,0-.531-1.628Z" transform="translate(147.836 1112.346)" fill="#fff"/>
    <path id="Trazado_882858" data-name="Trazado 882858" d="M408.705,81.1A155.926,155.926,0,0,1,185.664,299.049" transform="translate(152.444 1139.191)" fill="none" stroke="#03f" stroke-miterlimit="10" stroke-width="2.748"/>
    <path id="Trazado_882859" data-name="Trazado 882859" d="M392.464,398.269l.042.051a4.668,4.668,0,0,1-.042,3.983,5.852,5.852,0,0,1-3.333,2.812,5.553,5.553,0,0,1-4.638-.1,6.464,6.464,0,0,1-3.187-3.65l-1.047-2.683a6.536,6.536,0,0,1-.145-4.835,5.433,5.433,0,0,1,3.29-3.209,6.107,6.107,0,0,1,4.412-.259,4.619,4.619,0,0,1,2.746,2.935l0,.066-2.275.887a3.11,3.11,0,0,0-1.609-1.866,3.309,3.309,0,0,0-2.539.125,2.868,2.868,0,0,0-1.827,2.024,5.058,5.058,0,0,0,.283,3.2l1.053,2.7A5.034,5.034,0,0,0,385.63,403a2.949,2.949,0,0,0,2.768.231,2.832,2.832,0,0,0,1.8-4.082Z" transform="translate(123.643 1093.335)" fill="#03f"/>
    <path id="Trazado_882860" data-name="Trazado 882860" d="M407.327,389.881a6.4,6.4,0,0,1,.438,4.9,5.973,5.973,0,0,1-3.279,3.615,5.77,5.77,0,0,1-4.771.284,6.474,6.474,0,0,1-3.54-3.4l-1.187-2.452a6.486,6.486,0,0,1-.474-4.875,5.762,5.762,0,0,1,3.183-3.576,5.967,5.967,0,0,1,4.867-.324,6.387,6.387,0,0,1,3.575,3.373Zm-3.47-1.368a4.712,4.712,0,0,0-2.263-2.358,3.367,3.367,0,0,0-2.991.1,3.176,3.176,0,0,0-1.841,2.243,4.856,4.856,0,0,0,.49,3.217l1.2,2.47a4.9,4.9,0,0,0,2.236,2.4,3.178,3.178,0,0,0,2.9-.048,3.361,3.361,0,0,0,1.935-2.29,4.767,4.767,0,0,0-.466-3.262Z" transform="translate(121.488 1094.283)" fill="#03f"/>
    <path id="Trazado_882861" data-name="Trazado 882861" d="M416.06,390.093l6.135-3.554,1.011,1.746-8.32,4.819-7.588-13.1,2.186-1.266Z" transform="translate(119.55 1095.017)" fill="#03f"/>
    <path id="Trazado_882862" data-name="Trazado 882862" d="M433.681,373.59a6.4,6.4,0,0,1,1.147,4.782,5.975,5.975,0,0,1-2.717,4.055,5.774,5.774,0,0,1-4.679.977,6.48,6.48,0,0,1-4-2.844l-1.531-2.252a6.486,6.486,0,0,1-1.179-4.755,5.764,5.764,0,0,1,2.628-4,5.972,5.972,0,0,1,4.768-1.03,6.387,6.387,0,0,1,4.028,2.817Zm-3.633-.848a4.706,4.706,0,0,0-2.582-2,3.368,3.368,0,0,0-2.945.531,3.179,3.179,0,0,0-1.495,2.488,4.861,4.861,0,0,0,.954,3.112l1.543,2.269a4.89,4.89,0,0,0,2.562,2.047,3.173,3.173,0,0,0,2.861-.469,3.36,3.36,0,0,0,1.581-2.546,4.767,4.767,0,0,0-.936-3.159Z" transform="translate(117.568 1096.553)" fill="#03f"/>
    <path id="Trazado_882863" data-name="Trazado 882863" d="M439.635,368.729l3.928,4.9-1.971,1.581-9.47-11.806,4.063-3.26a5.972,5.972,0,0,1,3.765-1.552,3.994,3.994,0,0,1,3.12,1.681,3.377,3.377,0,0,1,.791,1.958,4.182,4.182,0,0,1-.534,2.167,3.2,3.2,0,0,1,2.265-.124,4.229,4.229,0,0,1,1.86,1.413l.787.982a5.12,5.12,0,0,0,.943.909,1.853,1.853,0,0,0,1.035.409l.15.187L448.34,369.8a1.667,1.667,0,0,1-1.084-.5,9.338,9.338,0,0,1-1-1.064l-.761-.949a2.533,2.533,0,0,0-1.681-1.024,2.433,2.433,0,0,0-1.852.606Zm-1.268-1.581,1.987-1.593a3.433,3.433,0,0,0,1.363-1.839,2.19,2.19,0,0,0-.569-1.823,2.356,2.356,0,0,0-1.657-.97,2.946,2.946,0,0,0-2.037.8l-2.092,1.678Z" transform="translate(115.865 1098.008)" fill="#03f"/>
    <path id="Trazado_882864" data-name="Trazado 882864" d="M455.884,353.758l-4.35,4.024,3.254,3.518,5.128-4.743,1.369,1.48L454.3,364.5l-10.278-11.11,6.928-6.41,1.377,1.488-5.075,4.695,2.9,3.136,4.35-4.024Z" transform="translate(114.099 1099.731)" fill="#03f"/>
    <path id="Trazado_882865" data-name="Trazado 882865" d="M467.713,346.25a1.989,1.989,0,0,0-1.587-.573,6.18,6.18,0,0,0-2.415.989,10.119,10.119,0,0,1-3.874,1.53,3.538,3.538,0,0,1-2.993-1,3.721,3.721,0,0,1-1.2-3.126,5.74,5.74,0,0,1,1.7-3.537,5.673,5.673,0,0,1,3.646-1.957,4.029,4.029,0,0,1,3.338,1.193l.031.058L462.7,341.6a2.419,2.419,0,0,0-1.93-.725,3.073,3.073,0,0,0-1.964,1.057,2.907,2.907,0,0,0-.911,1.848,1.975,1.975,0,0,0,.662,1.572,1.728,1.728,0,0,0,1.569.433,8.236,8.236,0,0,0,2.508-1.094,8.809,8.809,0,0,1,3.807-1.4,3.815,3.815,0,0,1,2.993,1.1,3.582,3.582,0,0,1,1.176,3.134,6.232,6.232,0,0,1-1.839,3.594,6.739,6.739,0,0,1-3.65,2.089,3.885,3.885,0,0,1-3.661-1.162l-.031-.057,1.667-1.772a2.381,2.381,0,0,0,2.14.722,3.763,3.763,0,0,0,2.074-1.2,3.364,3.364,0,0,0,1.015-1.906,1.826,1.826,0,0,0-.607-1.592" transform="translate(112.376 1100.98)" fill="#03f"/>
    <path id="Trazado_882866" data-name="Trazado 882866" d="M479.866,326.938l-3.722,4.835,5.115,3.939-1.541,2-11.993-9.232,5.91-7.678,1.606,1.237-4.369,5.676,3.666,2.822,3.722-4.836Z" transform="translate(110.581 1103.615)" fill="#03f"/>
    <path id="Trazado_882867" data-name="Trazado 882867" d="M484.57,320.757l5.233,3.469-1.395,2.105-12.616-8.362,2.877-4.341A5.975,5.975,0,0,1,481.782,311a4,4,0,0,1,3.485.651,3.375,3.375,0,0,1,1.349,1.623,4.174,4.174,0,0,1,.152,2.227,3.2,3.2,0,0,1,2.12-.808,4.23,4.23,0,0,1,2.2.779l1.049.7a5.068,5.068,0,0,0,1.174.578,1.861,1.861,0,0,0,1.11.076l.2.132-1.436,2.166a1.663,1.663,0,0,1-1.185-.15,9.447,9.447,0,0,1-1.276-.709l-1.013-.672a2.533,2.533,0,0,0-1.913-.463,2.433,2.433,0,0,0-1.58,1.142Zm-1.69-1.12,1.407-2.122a3.426,3.426,0,0,0,.738-2.167,2.185,2.185,0,0,0-1.1-1.563,2.35,2.35,0,0,0-1.874-.419,2.945,2.945,0,0,0-1.7,1.383l-1.482,2.235Z" transform="translate(109.384 1105.094)" fill="#03f"/>
    <path id="Trazado_882868" data-name="Trazado 882868" d="M481.227,300.909l1.446-2.467.064.014.9,3.816-1.024,1.748Zm16.963,9.4-1.277,2.179-13.057-7.654,1.277-2.178Z" transform="translate(108.577 1106.935)" fill="#03f"/>
    <path id="Trazado_882869" data-name="Trazado 882869" d="M501.3,292.316a6.394,6.394,0,0,1,3.3,3.643,5.975,5.975,0,0,1-.433,4.862,5.77,5.77,0,0,1-3.634,3.1,6.472,6.472,0,0,1-4.871-.573l-2.426-1.238a6.49,6.49,0,0,1-3.32-3.6,5.76,5.76,0,0,1,.383-4.771,5.969,5.969,0,0,1,3.685-3.2,6.393,6.393,0,0,1,4.886.534Zm-3.593,1a4.7,4.7,0,0,0-3.227-.514,3.363,3.363,0,0,0-2.327,1.881,3.176,3.176,0,0,0-.114,2.9,4.859,4.859,0,0,0,2.331,2.269l2.445,1.248a4.9,4.9,0,0,0,3.23.564,3.175,3.175,0,0,0,2.283-1.787,3.362,3.362,0,0,0,.163-2.993,4.771,4.771,0,0,0-2.339-2.32Z" transform="translate(107.339 1108.146)" fill="#03f"/>
    <path id="Trazado_882870" data-name="Trazado 882870" d="M508.7,281.022a1.992,1.992,0,0,0-1.688.025,6.187,6.187,0,0,0-1.91,1.778,10.106,10.106,0,0,1-3.083,2.8,3.539,3.539,0,0,1-3.153.125,3.722,3.722,0,0,1-2.225-2.5,5.739,5.739,0,0,1,.342-3.91,5.67,5.67,0,0,1,2.721-3.118,4.028,4.028,0,0,1,3.544-.063l.049.043-.933,2.246a2.414,2.414,0,0,0-2.062,0,3.071,3.071,0,0,0-1.466,1.682,2.907,2.907,0,0,0-.2,2.051,1.972,1.972,0,0,0,1.174,1.236,1.728,1.728,0,0,0,1.621-.147,8.235,8.235,0,0,0,1.959-1.911,8.8,8.8,0,0,1,3.068-2.653,3.816,3.816,0,0,1,3.19-.025,3.582,3.582,0,0,1,2.207,2.516,6.239,6.239,0,0,1-.451,4.011,6.735,6.735,0,0,1-2.677,3.245,3.887,3.887,0,0,1-3.835.207l-.049-.043.933-2.246a2.386,2.386,0,0,0,2.257-.08,3.76,3.76,0,0,0,1.518-1.851,3.374,3.374,0,0,0,.278-2.142,1.828,1.828,0,0,0-1.131-1.276" transform="translate(106.319 1110.299)" fill="#03f"/>
    <path id="Trazado_882871" data-name="Trazado 882871" d="M178.886,291.826A155.927,155.927,0,1,1,400.847,72.8" transform="translate(160.31 1147.504)" fill="none" stroke="#fecb00" stroke-miterlimit="10" stroke-width="2.748"/>
    <path id="Trazado_882872" data-name="Trazado 882872" d="M131.854,134.308l.066,0a4.691,4.691,0,0,1,2.969,2.685,5.883,5.883,0,0,1-.1,4.381,5.578,5.578,0,0,1-3.168,3.42,6.5,6.5,0,0,1-4.868-.033l-2.715-1a6.565,6.565,0,0,1-3.736-3.112,5.46,5.46,0,0,1-.223-4.612,6.138,6.138,0,0,1,2.744-3.492,4.64,4.64,0,0,1,4.036-.112l.052.042-.848,2.3a3.123,3.123,0,0,0-2.476-.032,3.327,3.327,0,0,0-1.6,1.994,2.885,2.885,0,0,0,.306,2.723,5.093,5.093,0,0,0,2.595,1.918l2.734,1.006a5.064,5.064,0,0,0,3.244.215,2.962,2.962,0,0,0,2.017-1.929,2.844,2.844,0,0,0-1.873-4.073Z" transform="translate(162.239 1131.633)" fill="#fecb00"/>
    <path id="Trazado_882873" data-name="Trazado 882873" d="M137.735,118.235a6.428,6.428,0,0,1,3.444,3.544,6.009,6.009,0,0,1-.267,4.9,5.8,5.8,0,0,1-3.543,3.244,6.509,6.509,0,0,1-4.913-.408l-2.479-1.161a6.522,6.522,0,0,1-3.457-3.5,5.787,5.787,0,0,1,.22-4.8,6,6,0,0,1,3.591-3.336,6.422,6.422,0,0,1,4.926.368Zm-3.574,1.13a4.728,4.728,0,0,0-3.258-.406,3.38,3.38,0,0,0-2.271,1.97,3.19,3.19,0,0,0-.016,2.917,4.882,4.882,0,0,0,2.419,2.2l2.5,1.169a4.922,4.922,0,0,0,3.264.456,3.192,3.192,0,0,0,2.232-1.873,3.378,3.378,0,0,0,.06-3.011,4.794,4.794,0,0,0-2.43-2.25Z" transform="translate(161.285 1133.956)" fill="#fecb00"/>
    <path id="Trazado_882874" data-name="Trazado 882874" d="M144.966,114.289l3.523-6.192,1.761,1-4.778,8.4-13.218-7.521,1.254-2.206Z" transform="translate(160.371 1135.233)" fill="#fecb00"/>
    <path id="Trazado_882875" data-name="Trazado 882875" d="M154.046,91.493a6.43,6.43,0,0,1,2.846,4.04,6,6,0,0,1-1.032,4.8,5.8,5.8,0,0,1-4.007,2.648,6.5,6.5,0,0,1-4.788-1.173L144.8,100.27a6.52,6.52,0,0,1-2.866-4,5.786,5.786,0,0,1,.97-4.711,5.994,5.994,0,0,1,4.069-2.732,6.422,6.422,0,0,1,4.807,1.134Zm-3.707.556a4.733,4.733,0,0,0-3.154-.912,3.383,3.383,0,0,0-2.552,1.59,3.194,3.194,0,0,0-.473,2.878,4.881,4.881,0,0,0,2.046,2.55l2.283,1.546a4.923,4.923,0,0,0,3.153.961,3.188,3.188,0,0,0,2.5-1.5,3.373,3.373,0,0,0,.531-2.964,4.8,4.8,0,0,0-2.046-2.6Z" transform="translate(158.957 1138.059)" fill="#fecb00"/>
    <path id="Trazado_882876" data-name="Trazado 882876" d="M158.591,85.11l4.908,3.965-1.6,1.974-11.83-9.557,3.289-4.071a6.005,6.005,0,0,1,3.361-2.333,4.019,4.019,0,0,1,3.425.98,3.394,3.394,0,0,1,1.2,1.753,4.191,4.191,0,0,1-.059,2.242,3.212,3.212,0,0,1,2.2-.609,4.245,4.245,0,0,1,2.129.988l.983.795a5.14,5.14,0,0,0,1.122.691,1.867,1.867,0,0,0,1.1.18l.186.151-1.641,2.032a1.669,1.669,0,0,1-1.172-.262,9.352,9.352,0,0,1-1.21-.829l-.95-.768a2.543,2.543,0,0,0-1.87-.644,2.444,2.444,0,0,0-1.688.993Zm-1.585-1.28,1.609-1.991a3.445,3.445,0,0,0,.943-2.1,2.2,2.2,0,0,0-.95-1.667,2.36,2.36,0,0,0-1.835-.6,2.956,2.956,0,0,0-1.827,1.223l-1.694,2.1Z" transform="translate(157.727 1140.096)" fill="#fecb00"/>
    <path id="Trazado_882877" data-name="Trazado 882877" d="M172.852,67.872l-4.082,4.335,3.505,3.3,4.813-5.11,1.475,1.39-6.553,6.957L160.94,68.318l6.5-6.9,1.483,1.4-4.763,5.057,3.125,2.943,4.082-4.335Z" transform="translate(156.114 1142.113)" fill="#fecb00"/>
    <path id="Trazado_882878" data-name="Trazado 882878" d="M185.087,60.778a2,2,0,0,0-1.547-.693,6.214,6.214,0,0,0-2.5.809,10.172,10.172,0,0,1-4,1.242,3.558,3.558,0,0,1-2.925-1.225,3.741,3.741,0,0,1-.966-3.222,5.765,5.765,0,0,1,1.971-3.417,5.693,5.693,0,0,1,3.8-1.687,4.049,4.049,0,0,1,3.256,1.446l.027.06-1.8,1.65a2.436,2.436,0,0,0-1.88-.871,3.084,3.084,0,0,0-2.047.911,2.917,2.917,0,0,0-1.052,1.783,1.982,1.982,0,0,0,.545,1.625,1.735,1.735,0,0,0,1.539.553,8.281,8.281,0,0,0,2.595-.909,8.841,8.841,0,0,1,3.921-1.116,3.832,3.832,0,0,1,2.917,1.331,3.6,3.6,0,0,1,.944,3.228,6.268,6.268,0,0,1-2.114,3.463,6.77,6.77,0,0,1-3.814,1.819,3.9,3.9,0,0,1-3.581-1.438l-.027-.06,1.8-1.65a2.4,2.4,0,0,0,2.091.884,3.78,3.78,0,0,0,2.168-1.042,3.388,3.388,0,0,0,1.161-1.833,1.835,1.835,0,0,0-.489-1.641" transform="translate(154.308 1143.424)" fill="#fecb00"/>
    <path id="Trazado_882879" data-name="Trazado 882879" d="M204.161,44.457l.054.038a4.69,4.69,0,0,1,.978,3.882,5.882,5.882,0,0,1-2.519,3.585,5.58,5.58,0,0,1-4.534,1.085,6.5,6.5,0,0,1-4.03-2.731l-1.7-2.339a6.569,6.569,0,0,1-1.379-4.662,5.463,5.463,0,0,1,2.376-3.959,6.134,6.134,0,0,1,4.221-1.381,4.64,4.64,0,0,1,3.419,2.149l.02.062-1.985,1.445a3.123,3.123,0,0,0-2.041-1.4A3.326,3.326,0,0,0,194.6,41a2.886,2.886,0,0,0-1.258,2.435,5.084,5.084,0,0,0,1.093,3.035l1.715,2.356a5.06,5.06,0,0,0,2.579,1.979,2.961,2.961,0,0,0,2.749-.484,2.845,2.845,0,0,0,.7-4.428Z" transform="translate(151.653 1145.596)" fill="#fecb00"/>
    <path id="Trazado_882880" data-name="Trazado 882880" d="M206.1,25.452l2.453-1.5.049.043-1.018,3.8-1.738,1.061Zm9.932,12.6-4.6,2.809.852,3.641-2.239,1.366-3.4-15.746,2.061-1.257,12.4,10.249-2.239,1.366Zm-5.107.634,3.415-2.085-4.792-4.1-.055.032Z" transform="translate(149.448 1147.673)" fill="#fecb00"/>
    <path id="Trazado_882881" data-name="Trazado 882881" d="M225.607,35.4l6.345-3.238.921,1.8-8.606,4.392-6.913-13.547,2.261-1.154Z" transform="translate(147.741 1147.718)" fill="#fecb00"/>
    <path id="Trazado_882959" data-name="Trazado 882959" d="M0,0H2.538V15.208H0Z" transform="translate(376.45 1166.947) rotate(-23.926)" fill="#fecb00"/>
    <path id="Trazado_882882" data-name="Trazado 882882" d="M243.128,29.146l-5.3-14.254,4.708-1.753a6.376,6.376,0,0,1,5.041.055,6.283,6.283,0,0,1,3.319,3.725l.8,2.164a6.265,6.265,0,0,1-.079,4.989,6.4,6.4,0,0,1-3.784,3.323Zm-2.212-13.23L244.8,26.363l2.33-.867a3.654,3.654,0,0,0,2.29-2.172,4.672,4.672,0,0,0-.1-3.356l-.812-2.183A4.654,4.654,0,0,0,246.4,15.2a3.656,3.656,0,0,0-3.153-.148Z" transform="translate(144.702 1149.352)" fill="#fecb00"/>
    <path id="Trazado_882883" data-name="Trazado 882883" d="M268.853,14.332a6.427,6.427,0,0,1-.462,4.92,6,6,0,0,1-3.9,2.974,5.8,5.8,0,0,1-4.766-.589,6.507,6.507,0,0,1-2.878-4L256.122,15a6.521,6.521,0,0,1,.422-4.9,5.786,5.786,0,0,1,3.8-2.952,6,6,0,0,1,4.869.567,6.421,6.421,0,0,1,2.916,3.986Zm-3.179-1.986A4.737,4.737,0,0,0,263.869,9.6a3.381,3.381,0,0,0-2.973-.45,3.2,3.2,0,0,0-2.229,1.88,4.889,4.889,0,0,0-.1,3.269l.732,2.658a4.914,4.914,0,0,0,1.772,2.779,3.189,3.189,0,0,0,2.873.483,3.379,3.379,0,0,0,2.33-1.908,4.8,4.8,0,0,0,.135-3.31Z" transform="translate(142.029 1150.209)" fill="#fecb00"/>
    <path id="Trazado_882884" data-name="Trazado 882884" d="M282.584,13.979a2,2,0,0,0-.948-1.405,6.185,6.185,0,0,0-2.546-.631,10.192,10.192,0,0,1-4.048-1.054A3.56,3.56,0,0,1,273.2,8.3a3.739,3.739,0,0,1,.881-3.246A5.767,5.767,0,0,1,277.564,3.2a5.692,5.692,0,0,1,4.119.575,4.048,4.048,0,0,1,2,2.948l-.009.064-2.4.45A2.425,2.425,0,0,0,280.135,5.5a3.083,3.083,0,0,0-2.22-.309,2.932,2.932,0,0,0-1.835.959,1.986,1.986,0,0,0-.4,1.668A1.737,1.737,0,0,0,276.7,9.1a8.324,8.324,0,0,0,2.683.6,8.829,8.829,0,0,1,3.918,1.122,3.834,3.834,0,0,1,1.774,2.671,3.6,3.6,0,0,1-.9,3.239,6.266,6.266,0,0,1-3.623,1.824,6.761,6.761,0,0,1-4.2-.469,3.9,3.9,0,0,1-2.281-3.113l.009-.066,2.4-.449a2.393,2.393,0,0,0,1.308,1.855,3.774,3.774,0,0,0,2.391.26,3.393,3.393,0,0,0,1.954-.944,1.835,1.835,0,0,0,.451-1.652" transform="translate(139.462 1150.774)" fill="#fecb00"/>
    <path id="Trazado_882960" data-name="Trazado 882960" d="M0,0H505V368.528H0Z" transform="translate(180 1151.229)" fill="none"/>
  </g>
</svg>
