<svg id="Grupo_1102972" data-name="Grupo 1102972" xmlns="http://www.w3.org/2000/svg" width="166" height="44.903" viewBox="0 0 166 44.903">
  <rect id="Rectángulo_402996" data-name="Rectángulo 402996" width="5.155" height="44.832" transform="translate(26.447 0)" fill="#12263f"/>
  <rect id="Rectángulo_402997" data-name="Rectángulo 402997" width="5.155" height="44.832" transform="translate(6.621 0)" fill="#12263f"/>
  <rect id="Rectángulo_402998" data-name="Rectángulo 402998" width="5.156" height="44.832" transform="translate(13.23 0)" fill="#12263f"/>
  <rect id="Rectángulo_402999" data-name="Rectángulo 402999" width="5.155" height="44.832" transform="translate(19.838 0)" fill="#12263f"/>
  <rect id="Rectángulo_403000" data-name="Rectángulo 403000" width="5.167" height="44.832" transform="translate(39.665 0)" fill="#12263f"/>
  <rect id="Rectángulo_403001" data-name="Rectángulo 403001" width="5.155" height="44.832" transform="translate(33.056 0)" fill="#12263f"/>
  <rect id="Rectángulo_403002" data-name="Rectángulo 403002" width="5.167" height="44.832" transform="translate(0 0)" fill="#12263f"/>
  <rect id="Rectángulo_403003" data-name="Rectángulo 403003" width="5.155" height="5.155" transform="translate(74.696 33.127)" fill="#12263f"/>
  <rect id="Rectángulo_403004" data-name="Rectángulo 403004" width="5.155" height="5.155" transform="translate(87.914 33.127)" fill="#12263f"/>
  <rect id="Rectángulo_403005" data-name="Rectángulo 403005" width="5.155" height="5.155" transform="translate(81.305 33.127)" fill="#12263f"/>
  <rect id="Rectángulo_403006" data-name="Rectángulo 403006" width="5.155" height="5.155" transform="translate(68.088 26.518)" fill="#12263f"/>
  <rect id="Rectángulo_403007" data-name="Rectángulo 403007" width="5.155" height="5.155" transform="translate(74.696 26.518)" fill="#12263f"/>
  <rect id="Rectángulo_403008" data-name="Rectángulo 403008" width="5.155" height="5.155" transform="translate(94.522 26.518)" fill="#12263f"/>
  <rect id="Rectángulo_403009" data-name="Rectángulo 403009" width="5.156" height="5.167" transform="translate(94.522 0.071)" fill="#12263f"/>
  <rect id="Rectángulo_403010" data-name="Rectángulo 403010" width="5.155" height="5.155" transform="translate(94.522 13.301)" fill="#12263f"/>
  <rect id="Rectángulo_403011" data-name="Rectángulo 403011" width="5.155" height="5.155" transform="translate(87.914 26.518)" fill="#12263f"/>
  <rect id="Rectángulo_403012" data-name="Rectángulo 403012" width="5.155" height="5.155" transform="translate(94.522 19.909)" fill="#12263f"/>
  <rect id="Rectángulo_403013" data-name="Rectángulo 403013" width="5.155" height="5.155" transform="translate(68.088 19.909)" fill="#12263f"/>
  <rect id="Rectángulo_403014" data-name="Rectángulo 403014" width="5.155" height="5.155" transform="translate(87.914 19.909)" fill="#12263f"/>
  <rect id="Rectángulo_403015" data-name="Rectángulo 403015" width="5.155" height="5.155" transform="translate(74.696 19.909)" fill="#12263f"/>
  <rect id="Rectángulo_403016" data-name="Rectángulo 403016" width="5.155" height="5.155" transform="translate(68.088 13.301)" fill="#12263f"/>
  <rect id="Rectángulo_403017" data-name="Rectángulo 403017" width="5.155" height="5.155" transform="translate(81.305 13.301)" fill="#12263f"/>
  <rect id="Rectángulo_403018" data-name="Rectángulo 403018" width="5.155" height="5.155" transform="translate(81.305 26.518)" fill="#12263f"/>
  <rect id="Rectángulo_403019" data-name="Rectángulo 403019" width="5.155" height="5.155" transform="translate(81.305 19.909)" fill="#12263f"/>
  <rect id="Rectángulo_403020" data-name="Rectángulo 403020" width="5.167" height="5.167" transform="translate(101.131 0.071)" fill="#12263f"/>
  <rect id="Rectángulo_403021" data-name="Rectángulo 403021" width="5.155" height="5.167" transform="translate(87.914 0.071)" fill="#12263f"/>
  <rect id="Rectángulo_403022" data-name="Rectángulo 403022" width="5.155" height="5.155" transform="translate(74.696 13.3)" fill="#12263f"/>
  <rect id="Rectángulo_403023" data-name="Rectángulo 403023" width="5.155" height="5.155" transform="translate(74.696 6.692)" fill="#12263f"/>
  <rect id="Rectángulo_403024" data-name="Rectángulo 403024" width="5.155" height="5.155" transform="translate(87.914 13.301)" fill="#12263f"/>
  <rect id="Rectángulo_403025" data-name="Rectángulo 403025" width="5.155" height="5.155" transform="translate(87.914 6.692)" fill="#12263f"/>
  <rect id="Rectángulo_403026" data-name="Rectángulo 403026" width="5.155" height="5.155" transform="translate(81.305 6.692)" fill="#12263f"/>
  <rect id="Rectángulo_403027" data-name="Rectángulo 403027" width="5.155" height="5.155" transform="translate(94.522 6.692)" fill="#12263f"/>
  <rect id="Rectángulo_403028" data-name="Rectángulo 403028" width="5.155" height="5.155" transform="translate(94.522 33.127)" fill="#12263f"/>
  <rect id="Rectángulo_403029" data-name="Rectángulo 403029" width="5.167" height="5.155" transform="translate(101.131 33.127)" fill="#12263f"/>
  <rect id="Rectángulo_403030" data-name="Rectángulo 403030" width="5.167" height="5.155" transform="translate(101.131 26.518)" fill="#12263f"/>
  <rect id="Rectángulo_403031" data-name="Rectángulo 403031" width="5.167" height="5.155" transform="translate(101.131 19.909)" fill="#12263f"/>
  <rect id="Rectángulo_403032" data-name="Rectángulo 403032" width="5.156" height="5.167" transform="translate(94.522 39.735)" fill="#12263f"/>
  <rect id="Rectángulo_403033" data-name="Rectángulo 403033" width="5.155" height="5.167" transform="translate(87.914 39.735)" fill="#12263f"/>
  <rect id="Rectángulo_403034" data-name="Rectángulo 403034" width="5.167" height="5.167" transform="translate(61.467 0.071)" fill="#12263f"/>
  <rect id="Rectángulo_403035" data-name="Rectángulo 403035" width="5.167" height="5.155" transform="translate(101.131 13.301)" fill="#12263f"/>
  <rect id="Rectángulo_403036" data-name="Rectángulo 403036" width="5.167" height="5.167" transform="translate(101.131 39.735)" fill="#12263f"/>
  <rect id="Rectángulo_403037" data-name="Rectángulo 403037" width="5.167" height="5.167" transform="translate(61.467 39.735)" fill="#12263f"/>
  <rect id="Rectángulo_403038" data-name="Rectángulo 403038" width="5.155" height="5.167" transform="translate(81.305 39.735)" fill="#12263f"/>
  <rect id="Rectángulo_403039" data-name="Rectángulo 403039" width="5.167" height="5.155" transform="translate(101.131 6.692)" fill="#12263f"/>
  <rect id="Rectángulo_403040" data-name="Rectángulo 403040" width="5.155" height="5.167" transform="translate(74.696 39.735)" fill="#12263f"/>
  <rect id="Rectángulo_403041" data-name="Rectángulo 403041" width="5.155" height="5.155" transform="translate(68.088 6.692)" fill="#12263f"/>
  <rect id="Rectángulo_403042" data-name="Rectángulo 403042" width="5.167" height="5.155" transform="translate(61.467 6.692)" fill="#12263f"/>
  <rect id="Rectángulo_403043" data-name="Rectángulo 403043" width="5.155" height="5.167" transform="translate(68.088 0.071)" fill="#12263f"/>
  <rect id="Rectángulo_403044" data-name="Rectángulo 403044" width="5.155" height="5.167" transform="translate(81.305 0.071)" fill="#12263f"/>
  <rect id="Rectángulo_403045" data-name="Rectángulo 403045" width="5.155" height="5.167" transform="translate(74.696 0.071)" fill="#12263f"/>
  <rect id="Rectángulo_403046" data-name="Rectángulo 403046" width="5.167" height="5.155" transform="translate(61.467 13.3)" fill="#12263f"/>
  <rect id="Rectángulo_403047" data-name="Rectángulo 403047" width="5.155" height="5.155" transform="translate(68.088 33.127)" fill="#12263f"/>
  <rect id="Rectángulo_403048" data-name="Rectángulo 403048" width="5.155" height="5.167" transform="translate(68.088 39.735)" fill="#12263f"/>
  <rect id="Rectángulo_403049" data-name="Rectángulo 403049" width="5.167" height="5.155" transform="translate(61.467 33.127)" fill="#12263f"/>
  <rect id="Rectángulo_403050" data-name="Rectángulo 403050" width="5.167" height="5.155" transform="translate(61.467 19.909)" fill="#12263f"/>
  <rect id="Rectángulo_403051" data-name="Rectángulo 403051" width="5.167" height="5.155" transform="translate(61.467 26.518)" fill="#12263f"/>
  <path id="Trazado_883394" data-name="Trazado 883394" d="M208.883,35.939H190.661V41.56h18.222Z" transform="translate(-52.078 -9.816)" fill="#12263f"/>
  <path id="Trazado_883395" data-name="Trazado 883395" d="M176.742,32.659h18.221V27.037H176.742Z" transform="translate(-48.275 -7.385)" fill="#12263f"/>
  <path id="Trazado_883396" data-name="Trazado 883396" d="M183.293,41.561V35.939H166.7v5.622Z" transform="translate(-45.533 -9.816)" fill="#12263f"/>
  <rect id="Rectángulo_403052" data-name="Rectángulo 403052" width="8.37" height="5.744" transform="translate(157.63 0.209)" fill="#12263f"/>
  <path id="Trazado_883397" data-name="Trazado 883397" d="M202.945,9.3v5.622h18.222V9.3Z" transform="translate(-55.433 -2.539)" fill="#12263f"/>
  <path id="Trazado_883398" data-name="Trazado 883398" d="M225.066,53.681h-8.2V59.3h8.369V53.681Z" transform="translate(-59.235 -14.662)" fill="#12263f"/>
  <rect id="Rectángulo_403053" data-name="Rectángulo 403053" width="18.222" height="5.744" transform="translate(138.584 0.209)" fill="#12263f"/>
  <path id="Trazado_883399" data-name="Trazado 883399" d="M225.066,18.2h-8.2v5.622h8.369V18.2Z" transform="translate(-59.235 -4.97)" fill="#12263f"/>
  <path id="Trazado_883400" data-name="Trazado 883400" d="M198.862,18.2h-8.2v5.622h18.222V18.2h-10.02Z" transform="translate(-52.077 -4.97)" fill="#12263f"/>
  <path id="Trazado_883401" data-name="Trazado 883401" d="M202.945,27.037v5.622h18.222V27.037Z" transform="translate(-55.433 -7.385)" fill="#12263f"/>
  <rect id="Rectángulo_403054" data-name="Rectángulo 403054" width="16.592" height="5.744" transform="translate(121.168 0.209)" fill="#12263f"/>
  <path id="Trazado_883402" data-name="Trazado 883402" d="M202.945,44.779V50.4h18.222V44.779Z" transform="translate(-55.433 -12.231)" fill="#12263f"/>
  <path id="Trazado_883403" data-name="Trazado 883403" d="M199.491,53.681h-8.83V59.3h18.221V53.681Z" transform="translate(-52.078 -14.662)" fill="#12263f"/>
  <path id="Trazado_883404" data-name="Trazado 883404" d="M186.762,50.4h8.2V44.779H176.742V50.4h10.02Z" transform="translate(-48.275 -12.231)" fill="#12263f"/>
  <path id="Trazado_883405" data-name="Trazado 883405" d="M225.066,35.939h-8.2v5.622h8.369V35.939Z" transform="translate(-59.235 -9.816)" fill="#12263f"/>
  <rect id="Rectángulo_403055" data-name="Rectángulo 403055" width="6.473" height="5.622" transform="translate(121.168 6.756)" fill="#12263f"/>
  <path id="Trazado_883406" data-name="Trazado 883406" d="M176.742,14.917h18.221V9.3H176.742Z" transform="translate(-48.275 -2.539)" fill="#12263f"/>
  <rect id="Rectángulo_403056" data-name="Rectángulo 403056" width="6.473" height="5.622" transform="translate(121.168 19.651)" fill="#12263f"/>
  <path id="Trazado_883407" data-name="Trazado 883407" d="M173.9,53.681h-7.2V59.3h16.591V53.681Z" transform="translate(-45.533 -14.662)" fill="#12263f"/>
  <path id="Trazado_883408" data-name="Trazado 883408" d="M166.7,23.819h16.592V18.2H166.7Z" transform="translate(-45.533 -4.97)" fill="#12263f"/>
  <rect id="Rectángulo_403057" data-name="Rectángulo 403057" width="6.473" height="5.622" transform="translate(121.168 32.548)" fill="#12263f"/>
</svg>
