<svg id="Grupo_1102996" data-name="Grupo 1102996" xmlns="http://www.w3.org/2000/svg" xmlns:xlink="http://www.w3.org/1999/xlink" width="102.047" height="66.175" viewBox="0 0 102.047 66.175">
  <defs>
    <clipPath id="clip-path">
      <rect id="Rectángulo_403071" data-name="Rectángulo 403071" width="102.047" height="66.175" transform="translate(0 0)" fill="#12263f"/>
    </clipPath>
  </defs>
  <g id="Grupo_1102995" data-name="Grupo 1102995" clip-path="url(#clip-path)">
    <path id="Trazado_883434" data-name="Trazado 883434" d="M37.872,33.088A31.029,31.029,0,0,1,50.024,8.44a31.088,31.088,0,1,0,0,49.3A31.029,31.029,0,0,1,37.872,33.088" fill="#12263f"/>
    <path id="Trazado_883435" data-name="Trazado 883435" d="M68.959,66.175a33.088,33.088,0,1,1,33.088-33.087A33.125,33.125,0,0,1,68.959,66.175M68.959,4A29.087,29.087,0,1,0,98.047,33.088,29.121,29.121,0,0,0,68.959,4" fill="#12263f"/>
  </g>
</svg>
