<svg id="Grupo_1102984" data-name="Grupo 1102984" xmlns="http://www.w3.org/2000/svg" xmlns:xlink="http://www.w3.org/1999/xlink" width="82.17" height="87.356" viewBox="0 0 82.17 87.356">
  <defs>
    <clipPath id="clip-path">
      <rect id="Rectángulo_403065" data-name="Rectángulo 403065" width="82.17" height="87.356" fill="#12263f"/>
    </clipPath>
  </defs>
  <g id="Grupo_1102983" data-name="Grupo 1102983" clip-path="url(#clip-path)">
    <path id="Trazado_883419" data-name="Trazado 883419" d="M76.094,29.263a6.048,6.048,0,0,0-3.515,1.122V12.4A6.191,6.191,0,0,0,62.791,7.41V6.16a6.174,6.174,0,0,0-12.348,0V7.41A6.191,6.191,0,0,0,40.655,12.4v7.491a6.191,6.191,0,0,0-9.788,4.991l0,19.374a22.441,22.441,0,0,0-20.817,2.051,1.28,1.28,0,0,0,1.415,2.133c12.928-8.745,30.888.918,30.751,16.532-1.089,26.3-38.563,26.293-39.648,0a19.6,19.6,0,0,1,4.257-12.26,1.28,1.28,0,0,0-2.009-1.586C-6.755,65.6,3.867,87.441,22.394,87.356a22.324,22.324,0,0,0,16.369-7.135c9.374,9.375,25.783,9.457,35.29.21a1.28,1.28,0,0,0-1.75-1.868C63.7,86.935,48.826,86.8,40.4,78.248,48.454,67.7,44.862,51.75,33.428,45.5l0-20.621a3.615,3.615,0,0,1,7.229,0v18.35a1.28,1.28,0,0,0,2.559,0c0-7.45,0-23.512,0-30.832a3.615,3.615,0,0,1,7.229,0V37.667a1.28,1.28,0,0,0,2.559,0V6.16a3.615,3.615,0,0,1,7.229,0c0,3.968,0,27.02,0,31.507a1.28,1.28,0,0,0,2.559,0V12.4a3.615,3.615,0,0,1,7.229,0c-.029,9.662.021,30.1,0,39.629A12.363,12.363,0,0,0,58.949,64.306a1.28,1.28,0,0,0,2.559,0A9.8,9.8,0,0,1,71.3,54.523a1.28,1.28,0,0,0,1.28-1.28V35.323a3.515,3.515,0,0,1,7.029,0V61.373A23.515,23.515,0,0,1,76.2,73.8c-.835,1.356,1.263,2.83,2.179,1.342a25.769,25.769,0,0,0,3.791-13.757V35.323A6.074,6.074,0,0,0,76.094,29.263Z" transform="translate(0)" fill="#12263f"/>
    <path id="Trazado_883420" data-name="Trazado 883420" d="M68.089,341.546a1.28,1.28,0,0,0,.521.935c16.263,11.342,35.646-8.057,24.308-24.308a1.28,1.28,0,0,0-1.938-.15l-22.52,22.52A1.279,1.279,0,0,0,68.089,341.546Zm23.589-20.6c7.528,13.237-7.07,27.824-20.3,20.3Z" transform="translate(-56.469 -263.453)" fill="#12263f"/>
    <path id="Trazado_883421" data-name="Trazado 883421" d="M56.682,281.934c-16.264-11.342-35.646,8.057-24.307,24.308a1.28,1.28,0,0,0,1.938.15l22.52-22.52a1.279,1.279,0,0,0-.15-1.938M33.613,303.472c-7.528-13.237,7.07-27.824,20.3-20.3Z" transform="translate(-24.037 -231.018)" fill="#12263f"/>
  </g>
</svg>
